<svg xmlns="http://www.w3.org/2000/svg" width="47.396" height="48.226" viewBox="0 0 47.396 48.226">
  <defs>
    <style>
      .a {
        opacity: .95;
      }

      .b {
        fill: #68d391;
      }
    </style>
  </defs>
  <g class="a" transform="translate(-448 -4275)">
    <path class="b"
      d="M140.072,206.438a1.694,1.694,0,0,1-2.159-1.991c.986-4.1,4.734-14.131,18.39-18.349A27.035,27.035,0,0,1,173.157,186a27.366,27.366,0,0,1,8.583,4.8,1.68,1.68,0,0,1,.275,2.36l-.01.013a1.72,1.72,0,0,1-2.4.272c-2.492-1.964-10.055-7.929-22.313-4.143-11.969,3.7-15.22,12.346-16.063,15.884a1.669,1.669,0,0,1-1.16,1.244Z"
      transform="translate(310.129 4090.296)" />
    <path class="b"
      d="M209.7,270.528a1.684,1.684,0,0,1-.419.079c-10.668.575-17.456-8.288-17.734-8.658l-.052-.085c-.17-.264-4.277-6.512-2.469-11.475a7.831,7.831,0,0,1,5.475-4.728c2.611-.807,4.748-.568,6.566.731a13.2,13.2,0,0,1,3.373,4.159c1.926,3.164,3.107,4.773,6.769,3.845a3.894,3.894,0,0,0,2.7-2.644c.923-2.664.105-6.3-2.06-9.045-2.8-3.565-10.625-9.487-20.283-6.5a17.727,17.727,0,0,0-9.76,7.242,18.609,18.609,0,0,0-2.985,9.756c-.038,6.187,5.033,14.328,5.082,14.4a1.677,1.677,0,0,1-.533,2.311l-.016.01a1.717,1.717,0,0,1-2.352-.526c-.229-.372-5.644-9.052-5.6-16.2a21.49,21.49,0,0,1,29.779-19.5,23.591,23.591,0,0,1,9.348,6.908c2.879,3.667,3.893,8.466,2.583,12.212a7.243,7.243,0,0,1-5.087,4.836c-6.266,1.594-8.72-2.419-10.51-5.346-1.838-3-2.855-4.408-6.032-3.427a4.556,4.556,0,0,0-3.271,2.643c-.615,1.7-.032,3.87.565,5.394l.019.048a13.776,13.776,0,0,0,3.5,5.084c2.458,2.27,7.021,5.506,12.837,5.194a1.68,1.68,0,0,1,1.781,1.572v.016a1.717,1.717,0,0,1-1.208,1.7Z"
      transform="translate(277.717 4049.435)" />
    <path class="b"
      d="M238.819,314.507a1.722,1.722,0,0,1-1.347-.141,27.164,27.164,0,0,1-11.615-12.611l-.011-.035c-1.676-3.747-2.686-9.472-.46-14.311,1.643-3.57,4.728-6.08,9.153-7.447a13.581,13.581,0,0,1,14.106,3.426,20.9,20.9,0,0,1,4.365,6.182,1.708,1.708,0,1,1-3.143,1.338,17.5,17.5,0,0,0-3.68-5.153,10.2,10.2,0,0,0-10.664-2.565c-3.454,1.067-5.833,2.954-7.051,5.608-1.756,3.82-.852,8.59.46,11.526a23.845,23.845,0,0,0,10.23,11.115,1.672,1.672,0,0,1,.635,2.278l-.013.023A1.715,1.715,0,0,1,238.819,314.507Z"
      transform="translate(235.665 4008.643)" />
    <circle class="b" cx="2.176" cy="2.176" r="2.176" transform="translate(472.862 4301.996)" />
  </g>
</svg>