<svg xmlns="http://www.w3.org/2000/svg" width="1612.242" height="460.574" viewBox="0 0 1612.242 460.574">
  <defs>
    <style>
      .a {
        fill: #6c63ff;
      }

      .b {
        fill: #3f3d56;
      }

      .c {
        fill: #fff;
      }

      .d {
        opacity: 0.4;
      }

      .e {
        fill: #4a5568;
      }

      .f {
        fill: #f7fafc;
      }
    </style>
  </defs>
  <g transform="translate(21724.242 507.998)">
    <path class="a" d="M0,.884,1612.242,0V460.574H0Z" transform="translate(-21724.242 -507.998)" />
    <path class="b" d="M855.8,385.452a5.946,5.946,0,1,0,0,11.893H1004.89a5.947,5.947,0,0,0,.2-11.892q-.1,0-.2,0Z"
      transform="translate(-21800 -709.26)" />
    <path class="c"
      d="M1038.69,383.8a1.17,1.17,0,0,0,0,1.655l5.023,5.023H1031.33a1.17,1.17,0,1,0,0,2.34h12.39l-5.023,5.023a1.17,1.17,0,1,0,1.655,1.655l7.02-7.02a1.17,1.17,0,0,0,0-1.655l-7.02-7.02a1.17,1.17,0,0,0-1.662,0Z"
      transform="translate(-21800 -709.26)" />
    <path class="c"
      d="M821.927,383.8a1.17,1.17,0,0,1,0,1.655l-5.023,5.023H829.29a1.17,1.17,0,0,1,0,2.34H816.905l5.023,5.023a1.17,1.17,0,1,1-1.655,1.655l-7.02-7.02a1.17,1.17,0,0,1,0-1.655l7.02-7.02a1.17,1.17,0,0,1,1.654,0Z"
      transform="translate(-21800 -709.26)" />
    <g class="d" transform="translate(-21690 -504)">
      <circle class="c" cx="6.39" cy="6.39" r="6.39" transform="translate(745.43 44)" />
      <circle class="c" cx="6.39" cy="6.39" r="6.39" transform="translate(772.055 44)" />
      <circle class="c" cx="6.39" cy="6.39" r="6.39" transform="translate(798.679 44)" />
      <circle class="c" cx="6.39" cy="6.39" r="6.39" transform="translate(825.304 44)" />
      <circle class="c" cx="6.39" cy="6.39" r="6.39" transform="translate(851.928 44)" />
      <circle class="c" cx="6.39" cy="6.39" r="6.39" transform="translate(878.553 44)" />
      <circle class="c" cx="6.39" cy="6.39" r="6.39" transform="translate(905.177 44)" />
      <circle class="c" cx="6.39" cy="6.39" r="6.39" transform="translate(745.43 64.235)" />
      <circle class="c" cx="6.39" cy="6.39" r="6.39" transform="translate(772.055 64.235)" />
      <circle class="c" cx="6.39" cy="6.39" r="6.39" transform="translate(798.679 64.235)" />
      <circle class="c" cx="6.39" cy="6.39" r="6.39" transform="translate(825.304 64.235)" />
      <circle class="c" cx="6.39" cy="6.39" r="6.39" transform="translate(851.928 64.235)" />
      <circle class="c" cx="6.39" cy="6.39" r="6.39" transform="translate(878.553 64.235)" />
      <circle class="c" cx="6.39" cy="6.39" r="6.39" transform="translate(905.177 64.235)" />
      <circle class="c" cx="6.39" cy="6.39" r="6.39" transform="translate(745.43 84.469)" />
      <circle class="c" cx="6.39" cy="6.39" r="6.39" transform="translate(772.055 84.469)" />
      <circle class="c" cx="6.39" cy="6.39" r="6.39" transform="translate(798.679 84.469)" />
      <circle class="c" cx="6.39" cy="6.39" r="6.39" transform="translate(825.304 84.469)" />
      <circle class="c" cx="6.39" cy="6.39" r="6.39" transform="translate(851.928 84.469)" />
      <circle class="c" cx="6.39" cy="6.39" r="6.39" transform="translate(878.553 84.469)" />
      <circle class="c" cx="6.39" cy="6.39" r="6.39" transform="translate(905.177 84.469)" />
      <circle class="c" cx="6.39" cy="6.39" r="6.39" transform="translate(745.43 104.704)" />
      <circle class="c" cx="6.39" cy="6.39" r="6.39" transform="translate(772.055 104.704)" />
      <circle class="c" cx="6.39" cy="6.39" r="6.39" transform="translate(745.43 124.939)" />
      <circle class="c" cx="6.39" cy="6.39" r="6.39" transform="translate(772.055 124.939)" />
      <circle class="c" cx="6.39" cy="6.39" r="6.39" transform="translate(798.679 124.939)" />
      <circle class="c" cx="6.39" cy="6.39" r="6.39" transform="translate(798.679 104.704)" />
      <circle class="c" cx="6.39" cy="6.39" r="6.39" transform="translate(825.304 104.704)" />
      <circle class="c" cx="6.39" cy="6.39" r="6.39" transform="translate(851.928 104.704)" />
      <circle class="c" cx="6.39" cy="6.39" r="6.39" transform="translate(878.553 104.704)" />
      <circle class="c" cx="6.39" cy="6.39" r="6.39" transform="translate(905.177 104.704)" />
    </g>
    <path class="b"
      d="M770.157,580.719a35.273,35.273,0,1,1,35.273-35.273A35.273,35.273,0,0,1,770.157,580.719Zm0-68.545a33.273,33.273,0,1,0,33.273,33.273,33.273,33.273,0,0,0-33.273-33.273Z"
      transform="translate(-21800 -709.26)" />
    <path class="c"
      d="M783.681,542.065H773.538V531.923a3.381,3.381,0,0,0-6.762,0v10.142H756.634a3.381,3.381,0,0,0,0,6.761h10.142v10.142a3.381,3.381,0,0,0,6.762,0V548.827H783.68a3.381,3.381,0,1,0,0-6.761Z"
      transform="translate(-21800 -709.26)" />
    <g class="d" transform="translate(-21690 -504)">
      <circle class="c" cx="5.024" cy="5.024" r="5.024" transform="translate(49 369.742)" />
      <circle class="c" cx="5.024" cy="5.024" r="5.024" transform="translate(49 348.809)" />
      <circle class="c" cx="5.024" cy="5.024" r="5.024" transform="translate(49 327.876)" />
      <circle class="c" cx="5.024" cy="5.024" r="5.024" transform="translate(49 306.943)" />
      <circle class="c" cx="5.024" cy="5.024" r="5.024" transform="translate(49 286.01)" />
      <circle class="c" cx="5.024" cy="5.024" r="5.024" transform="translate(49 265.077)" />
      <circle class="c" cx="5.024" cy="5.024" r="5.024" transform="translate(49 244.144)" />
      <circle class="c" cx="5.024" cy="5.024" r="5.024" transform="translate(64.909 369.742)" />
      <circle class="c" cx="5.024" cy="5.024" r="5.024" transform="translate(64.909 348.809)" />
      <circle class="c" cx="5.024" cy="5.024" r="5.024" transform="translate(64.909 327.876)" />
      <circle class="c" cx="5.024" cy="5.024" r="5.024" transform="translate(64.909 306.943)" />
      <circle class="c" cx="5.024" cy="5.024" r="5.024" transform="translate(64.909 286.01)" />
      <circle class="c" cx="5.024" cy="5.024" r="5.024" transform="translate(64.909 265.077)" />
      <circle class="c" cx="5.024" cy="5.024" r="5.024" transform="translate(64.909 244.144)" />
      <circle class="c" cx="5.024" cy="5.024" r="5.024" transform="translate(80.818 369.742)" />
      <circle class="c" cx="5.024" cy="5.024" r="5.024" transform="translate(80.818 348.809)" />
      <circle class="c" cx="5.024" cy="5.024" r="5.024" transform="translate(80.818 327.876)" />
      <circle class="c" cx="5.024" cy="5.024" r="5.024" transform="translate(80.818 306.943)" />
      <circle class="c" cx="5.024" cy="5.024" r="5.024" transform="translate(80.818 286.01)" />
      <circle class="c" cx="5.024" cy="5.024" r="5.024" transform="translate(80.818 265.077)" />
      <circle class="c" cx="5.024" cy="5.024" r="5.024" transform="translate(80.818 244.144)" />
      <circle class="c" cx="5.024" cy="5.024" r="5.024" transform="translate(96.727 369.742)" />
      <circle class="c" cx="5.024" cy="5.024" r="5.024" transform="translate(96.727 348.809)" />
      <circle class="c" cx="5.024" cy="5.024" r="5.024" transform="translate(112.636 369.742)" />
      <circle class="c" cx="5.024" cy="5.024" r="5.024" transform="translate(112.636 348.809)" />
      <circle class="c" cx="5.024" cy="5.024" r="5.024" transform="translate(112.636 327.876)" />
      <circle class="c" cx="5.024" cy="5.024" r="5.024" transform="translate(96.727 327.876)" />
      <circle class="c" cx="5.024" cy="5.024" r="5.024" transform="translate(96.727 306.943)" />
      <circle class="c" cx="5.024" cy="5.024" r="5.024" transform="translate(96.727 286.01)" />
      <circle class="c" cx="5.024" cy="5.024" r="5.024" transform="translate(96.727 265.077)" />
      <circle class="c" cx="5.024" cy="5.024" r="5.024" transform="translate(96.727 244.144)" />
    </g>
    <path class="b"
      d="M607.408,238.262H273.666a6.189,6.189,0,0,0-6.182,6.182V529.827a6.189,6.189,0,0,0,6.182,6.182H607.408a6.189,6.189,0,0,0,6.182-6.182V244.444a6.189,6.189,0,0,0-6.182-6.182Zm3.7,291.566a3.718,3.718,0,0,1-3.7,3.716H273.666a3.711,3.711,0,0,1-3.7-3.716V244.444a3.711,3.711,0,0,1,3.7-3.716H607.408a3.718,3.718,0,0,1,3.7,3.716Z"
      transform="translate(-21800 -709.26)" />
    <path class="c"
      d="M350.7,485.266c0,.44-.012.88-.035,1.308a25.175,25.175,0,0,1-50.281,0c-.023-.428-.035-.868-.035-1.308a25.175,25.175,0,1,1,50.35,0Z"
      transform="translate(-21800 -709.26)" />
    <path class="b" d="M581.475,468.479H383.663a4.2,4.2,0,0,0,0,8.394H581.475a4.2,4.2,0,1,0,0-8.394Z"
      transform="translate(-21800 -709.26)" />
    <path class="c" d="M468.78,493.66H383.663a4.191,4.191,0,0,0,0,8.382H468.78a4.191,4.191,0,1,0,0-8.382Z"
      transform="translate(-21800 -709.26)" />
    <path class="c"
      d="M686.7,438.841H352.958a8.559,8.559,0,0,1-8.549-8.55V283.829a8.559,8.559,0,0,1,8.549-8.549H686.7a8.559,8.559,0,0,1,8.549,8.549V430.291A8.559,8.559,0,0,1,686.7,438.841ZM352.958,278.28a5.555,5.555,0,0,0-5.549,5.549V430.291a5.556,5.556,0,0,0,5.549,5.55H686.7a5.556,5.556,0,0,0,5.549-5.55V283.829a5.555,5.555,0,0,0-5.549-5.549Z"
      transform="translate(-21800 -709.26)" />
    <path class="c" d="M420.924,328.7a4.2,4.2,0,1,0,0,8.392H618.732a4.2,4.2,0,0,0,0-8.392Z"
      transform="translate(-21800 -709.26)" />
    <path class="c" d="M420.924,353.012a4.2,4.2,0,1,0,0,8.392H618.732a4.2,4.2,0,0,0,0-8.392Z"
      transform="translate(-21800 -709.26)" />
    <path class="c" d="M420.924,377.03a4.2,4.2,0,0,0,0,8.392h85.117a4.2,4.2,0,1,0,0-8.392Z"
      transform="translate(-21800 -709.26)" />
    <path class="c"
      d="M741.724,500.893,708.2,453.586l10.851,2.261a1.5,1.5,0,0,0,.612-2.939L703.5,449.541l-2.183,16.371a1.5,1.5,0,0,0,2.976.4l1.463-10.993,33.523,47.312a1.5,1.5,0,1,0,2.447-1.734Z"
      transform="translate(-21800 -709.26)" />
    <path class="b"
      d="M559.666,638.58H321.409A4.417,4.417,0,0,1,317,634.168v-59.1a4.417,4.417,0,0,1,4.412-4.412H559.666a4.417,4.417,0,0,1,4.412,4.412v59.1A4.417,4.417,0,0,1,559.666,638.58ZM321.409,572.419a2.65,2.65,0,0,0-2.647,2.647v59.1a2.65,2.65,0,0,0,2.647,2.647H559.666a2.65,2.65,0,0,0,2.647-2.647v-59.1a2.65,2.65,0,0,0-2.647-2.647Z"
      transform="translate(-21800 -709.26)" />
    <circle class="c" cx="17.973" cy="17.973" r="17.973" transform="translate(-21459.543 -124.883)" />
    <path class="c" d="M399.938,590.368a3,3,0,1,0,0,5.991H541.153a3,3,0,1,0,0-5.991Z"
      transform="translate(-21800 -709.26)" />
    <path class="c" d="M399.938,608.341a3,3,0,1,0,0,5.991H460.7a3,3,0,1,0,0-5.991Z"
      transform="translate(-21800 -709.26)" />
    <path class="b"
      d="M874.024,428.016H979.917a4.417,4.417,0,0,1,4.412,4.412V542.71a4.417,4.417,0,0,1-4.412,4.412H874.024a4.417,4.417,0,0,1-4.412-4.412V432.428a4.417,4.417,0,0,1,4.412-4.412ZM979.917,545.358a2.65,2.65,0,0,0,2.647-2.647V432.428a2.65,2.65,0,0,0-2.647-2.647H874.024a2.65,2.65,0,0,0-2.647,2.647V542.71a2.65,2.65,0,0,0,2.647,2.647Z"
      transform="translate(-21800 -709.26)" />
    <path class="c" d="M957.353,524.38a3,3,0,0,0,0-5.991H896.588a3,3,0,0,0,0,5.991Z"
      transform="translate(-21800 -709.26)" />
    <path class="c" d="M957.353,506.731a3,3,0,0,0,0-5.991H896.588a3,3,0,0,0,0,5.991Z"
      transform="translate(-21800 -709.26)" />
    <path class="c" d="M926.97,450.758a18.855,18.855,0,1,1-18.855,18.855A18.855,18.855,0,0,1,926.97,450.758Z"
      transform="translate(-21800 -709.26)" />
    <g class="d" transform="translate(-20804 -524)">
      <circle class="c" cx="5.024" cy="5.024" r="5.024" transform="translate(49 369.742)" />
      <circle class="c" cx="5.024" cy="5.024" r="5.024" transform="translate(49 348.809)" />
      <circle class="c" cx="5.024" cy="5.024" r="5.024" transform="translate(49 327.876)" />
      <circle class="c" cx="5.024" cy="5.024" r="5.024" transform="translate(49 306.943)" />
      <circle class="c" cx="5.024" cy="5.024" r="5.024" transform="translate(49 286.01)" />
      <circle class="c" cx="5.024" cy="5.024" r="5.024" transform="translate(49 265.077)" />
      <circle class="c" cx="5.024" cy="5.024" r="5.024" transform="translate(49 244.144)" />
      <circle class="c" cx="5.024" cy="5.024" r="5.024" transform="translate(64.909 369.742)" />
      <circle class="c" cx="5.024" cy="5.024" r="5.024" transform="translate(64.909 348.809)" />
      <circle class="c" cx="5.024" cy="5.024" r="5.024" transform="translate(64.909 327.876)" />
      <circle class="c" cx="5.024" cy="5.024" r="5.024" transform="translate(64.909 306.943)" />
      <circle class="c" cx="5.024" cy="5.024" r="5.024" transform="translate(64.909 286.01)" />
      <circle class="c" cx="5.024" cy="5.024" r="5.024" transform="translate(64.909 265.077)" />
      <circle class="c" cx="5.024" cy="5.024" r="5.024" transform="translate(64.909 244.144)" />
      <circle class="c" cx="5.024" cy="5.024" r="5.024" transform="translate(80.818 369.742)" />
      <circle class="c" cx="5.024" cy="5.024" r="5.024" transform="translate(80.818 348.809)" />
      <circle class="c" cx="5.024" cy="5.024" r="5.024" transform="translate(80.818 327.876)" />
      <circle class="c" cx="5.024" cy="5.024" r="5.024" transform="translate(80.818 306.943)" />
      <circle class="c" cx="5.024" cy="5.024" r="5.024" transform="translate(80.818 286.01)" />
      <circle class="c" cx="5.024" cy="5.024" r="5.024" transform="translate(80.818 265.077)" />
      <circle class="c" cx="5.024" cy="5.024" r="5.024" transform="translate(80.818 244.144)" />
      <circle class="c" cx="5.024" cy="5.024" r="5.024" transform="translate(96.727 369.742)" />
      <circle class="c" cx="5.024" cy="5.024" r="5.024" transform="translate(96.727 348.809)" />
      <circle class="c" cx="5.024" cy="5.024" r="5.024" transform="translate(112.636 369.742)" />
      <circle class="c" cx="5.024" cy="5.024" r="5.024" transform="translate(112.636 348.809)" />
      <circle class="c" cx="5.024" cy="5.024" r="5.024" transform="translate(112.636 327.876)" />
      <circle class="c" cx="5.024" cy="5.024" r="5.024" transform="translate(96.727 327.876)" />
      <circle class="c" cx="5.024" cy="5.024" r="5.024" transform="translate(96.727 306.943)" />
      <circle class="c" cx="5.024" cy="5.024" r="5.024" transform="translate(96.727 286.01)" />
      <circle class="c" cx="5.024" cy="5.024" r="5.024" transform="translate(96.727 265.077)" />
      <circle class="c" cx="5.024" cy="5.024" r="5.024" transform="translate(96.727 244.144)" />
    </g>
    <path class="b"
      d="M607.408,238.262H273.666a6.189,6.189,0,0,0-6.182,6.182V529.827a6.189,6.189,0,0,0,6.182,6.182H607.408a6.189,6.189,0,0,0,6.182-6.182V244.444a6.189,6.189,0,0,0-6.182-6.182Zm3.7,291.566a3.718,3.718,0,0,1-3.7,3.716H273.666a3.711,3.711,0,0,1-3.7-3.716V244.444a3.711,3.711,0,0,1,3.7-3.716H607.408a3.718,3.718,0,0,1,3.7,3.716Z"
      transform="translate(-20914 -729.26)" />
    <path class="e"
      d="M350.7,485.266c0,.44-.012.88-.035,1.308a25.175,25.175,0,0,1-50.281,0c-.023-.428-.035-.868-.035-1.308a25.175,25.175,0,1,1,50.35,0Z"
      transform="translate(-20914 -729.26)" />
    <path class="b" d="M581.475,468.479H383.663a4.2,4.2,0,0,0,0,8.394H581.475a4.2,4.2,0,1,0,0-8.394Z"
      transform="translate(-20914 -702.26)" />
    <path class="c" d="M468.78,493.66H383.663a4.191,4.191,0,0,0,0,8.382H468.78a4.191,4.191,0,1,0,0-8.382Z"
      transform="translate(-20914 -748.26)" />
    <path class="c"
      d="M686.7,438.841H352.958a8.559,8.559,0,0,1-8.549-8.55V283.829a8.559,8.559,0,0,1,8.549-8.549H686.7a8.559,8.559,0,0,1,8.549,8.549V430.291A8.559,8.559,0,0,1,686.7,438.841ZM352.958,278.28a5.555,5.555,0,0,0-5.549,5.549V430.291a5.556,5.556,0,0,0,5.549,5.55H686.7a5.556,5.556,0,0,0,5.549-5.55V283.829a5.555,5.555,0,0,0-5.549-5.549Z"
      transform="translate(-20914 -729.26)" />
    <path class="c"
      d="M741.724,500.893,708.2,453.586l10.851,2.261a1.5,1.5,0,0,0,.612-2.939L703.5,449.541l-2.183,16.371a1.5,1.5,0,0,0,2.976.4l1.463-10.993,33.523,47.312a1.5,1.5,0,1,0,2.447-1.734Z"
      transform="translate(-20914 -729.26)" />
    <path class="b"
      d="M559.666,638.58H321.409A4.417,4.417,0,0,1,317,634.168v-59.1a4.417,4.417,0,0,1,4.412-4.412H559.666a4.417,4.417,0,0,1,4.412,4.412v59.1A4.417,4.417,0,0,1,559.666,638.58ZM321.409,572.419a2.65,2.65,0,0,0-2.647,2.647v59.1a2.65,2.65,0,0,0,2.647,2.647H559.666a2.65,2.65,0,0,0,2.647-2.647v-59.1a2.65,2.65,0,0,0-2.647-2.647Z"
      transform="translate(-20914 -729.26)" />
    <circle class="c" cx="17.973" cy="17.973" r="17.973" transform="translate(-20573.543 -144.883)" />
    <path class="c" d="M399.938,590.368a3,3,0,1,0,0,5.991H541.153a3,3,0,1,0,0-5.991Z"
      transform="translate(-20914 -729.26)" />
    <path class="c" d="M399.938,608.341a3,3,0,1,0,0,5.991H460.7a3,3,0,1,0,0-5.991Z"
      transform="translate(-20914 -729.26)" />
    <g class="d" transform="translate(-21259 -464)">
      <circle class="e" cx="6.39" cy="6.39" r="6.39" transform="translate(745.43 44)" />
      <circle class="e" cx="6.39" cy="6.39" r="6.39" transform="translate(772.055 44)" />
      <circle class="e" cx="6.39" cy="6.39" r="6.39" transform="translate(798.679 44)" />
      <circle class="e" cx="6.39" cy="6.39" r="6.39" transform="translate(825.304 44)" />
      <circle class="e" cx="6.39" cy="6.39" r="6.39" transform="translate(851.928 44)" />
      <circle class="e" cx="6.39" cy="6.39" r="6.39" transform="translate(878.553 44)" />
      <circle class="e" cx="6.39" cy="6.39" r="6.39" transform="translate(905.177 44)" />
      <circle class="e" cx="6.39" cy="6.39" r="6.39" transform="translate(745.43 64.235)" />
      <circle class="e" cx="6.39" cy="6.39" r="6.39" transform="translate(772.055 64.235)" />
      <circle class="e" cx="6.39" cy="6.39" r="6.39" transform="translate(798.679 64.235)" />
      <circle class="e" cx="6.39" cy="6.39" r="6.39" transform="translate(825.304 64.235)" />
      <circle class="e" cx="6.39" cy="6.39" r="6.39" transform="translate(851.928 64.235)" />
      <circle class="e" cx="6.39" cy="6.39" r="6.39" transform="translate(878.553 64.235)" />
      <circle class="e" cx="6.39" cy="6.39" r="6.39" transform="translate(905.177 64.235)" />
      <circle class="e" cx="6.39" cy="6.39" r="6.39" transform="translate(745.43 84.469)" />
      <circle class="e" cx="6.39" cy="6.39" r="6.39" transform="translate(772.055 84.469)" />
      <circle class="e" cx="6.39" cy="6.39" r="6.39" transform="translate(798.679 84.469)" />
      <circle class="e" cx="6.39" cy="6.39" r="6.39" transform="translate(825.304 84.469)" />
      <circle class="e" cx="6.39" cy="6.39" r="6.39" transform="translate(851.928 84.469)" />
      <circle class="e" cx="6.39" cy="6.39" r="6.39" transform="translate(878.553 84.469)" />
      <circle class="e" cx="6.39" cy="6.39" r="6.39" transform="translate(905.177 84.469)" />
      <circle class="e" cx="6.39" cy="6.39" r="6.39" transform="translate(745.43 104.704)" />
      <circle class="e" cx="6.39" cy="6.39" r="6.39" transform="translate(772.055 104.704)" />
      <circle class="e" cx="6.39" cy="6.39" r="6.39" transform="translate(745.43 124.939)" />
      <circle class="e" cx="6.39" cy="6.39" r="6.39" transform="translate(772.055 124.939)" />
      <circle class="e" cx="6.39" cy="6.39" r="6.39" transform="translate(798.679 124.939)" />
      <circle class="e" cx="6.39" cy="6.39" r="6.39" transform="translate(798.679 104.704)" />
      <circle class="e" cx="6.39" cy="6.39" r="6.39" transform="translate(825.304 104.704)" />
      <circle class="e" cx="6.39" cy="6.39" r="6.39" transform="translate(851.928 104.704)" />
      <circle class="e" cx="6.39" cy="6.39" r="6.39" transform="translate(878.553 104.704)" />
      <circle class="e" cx="6.39" cy="6.39" r="6.39" transform="translate(905.177 104.704)" />
    </g>
    <path class="f"
      d="M770.157,580.719a35.273,35.273,0,1,1,35.273-35.273A35.273,35.273,0,0,1,770.157,580.719Zm0-68.545a33.273,33.273,0,1,0,33.273,33.273,33.273,33.273,0,0,0-33.273-33.273Z"
      transform="translate(-21040 -669.26)" />
    <path class="e"
      d="M783.681,542.065H773.538V531.923a3.381,3.381,0,0,0-6.762,0v10.142H756.634a3.381,3.381,0,0,0,0,6.761h10.142v10.142a3.381,3.381,0,0,0,6.762,0V548.827H783.68a3.381,3.381,0,1,0,0-6.761Z"
      transform="translate(-21040 -669.26)" />
  </g>
</svg>