<svg xmlns="http://www.w3.org/2000/svg" xmlns:xlink="http://www.w3.org/1999/xlink" width="810.29" height="645.999"
  viewBox="0 0 810.29 645.999">
  <defs>
    <style>
      .a,
      .b,
      .f {
        fill: #2d3748;
      }

      .b,
      .e,
      .n {
        opacity: 0.1;
      }

      .c,
      .k {
        fill: #e9c46a;
      }

      .c,
      .g {
        opacity: 0.1;
      }

      .d {
        fill: #82edab;
        opacity: 0.9;
      }

      .f {
        opacity: 0.3;
      }

      .g,
      .i {
        fill: #fff;
      }

      .h {
        fill: url(#a);
      }

      .j {
        fill: #cf6f80;
      }

      .l {
        fill: #3f3d56;
      }

      .m {
        fill: #512e4e;
      }
    </style>
    <linearGradient id="a" x1="0.5" y1="1" x2="0.5" gradientUnits="objectBoundingBox">
      <stop offset="0" stop-color="gray" stop-opacity="0.251" />
      <stop offset="0.54" stop-color="gray" stop-opacity="0.122" />
      <stop offset="1" stop-color="gray" stop-opacity="0.102" />
    </linearGradient>
  </defs>
  <g transform="translate(-877 -125)">
    <path class="a"
      d="M158.46,801.36s-34.679-2.092-30.594,22.217c0,0-.82,4.291,3.077,6.243,0,0,.066-1.8,3.561-1.19a15.882,15.882,0,0,0,3.766.18,7.851,7.851,0,0,0,4.611-1.9h0s9.747-4.028,13.545-19.961c0,0,2.806-3.479,2.691-4.373l-5.85,2.461s1.994,4.225.427,7.728c0,0-.2-7.572-1.321-7.384-.23.041-3.036,1.469-3.036,1.469s3.438,7.384.82,12.7c0,0,.985-9.066-1.92-12.175l-4.1,2.412s4.028,7.6,1.3,13.791c0,0,.7-9.509-2.158-13.209l-3.733,2.912s3.774,7.49,1.469,12.626c0,0-.3-11.068-2.281-11.9,0,0-3.282,2.88-3.766,4.1,0,0,2.593,5.431.984,8.3,0,0-.984-7.384-1.789-7.384,0,0-3.282,4.882-3.593,8.2a17.785,17.785,0,0,1,2.8-8.7,9.755,9.755,0,0,0-4.98,2.576s.509-3.454,5.784-3.758c0,0,2.691-3.7,3.413-3.93,0,0-5.251-.435-8.434.976,0,0,2.8-3.282,9.394-1.78l3.692-3.011s-6.916-.944-9.845.1c0,0,3.372-2.88,10.838-.779l4.012-2.4s-5.9-1.272-9.41-.82c0,0,3.708-2,10.583.164l2.871-1.288s-4.324-.82-5.587-.984-1.329-.484-1.329-.484a14.981,14.981,0,0,1,8.114.9S158.567,801.746,158.46,801.36Z"
      transform="translate(766.977 -65.089)" />
    <ellipse class="b" cx="24.547" cy="4.151" rx="24.547" ry="4.151" transform="translate(877 762.697)" />
    <path class="a"
      d="M1089.55,734.074s-19.559-1.181-17.229,12.52a3.347,3.347,0,0,0,1.739,3.528s0-1.017,2-.673a9.145,9.145,0,0,0,2.125.1,4.422,4.422,0,0,0,2.6-1.067h0s5.5-2.273,7.638-11.256c0,0,1.575-1.961,1.518-2.461l-3.282,1.411a5.94,5.94,0,0,1,.238,4.365s-.107-4.274-.739-4.176c-.131,0-1.723.82-1.723.82s1.944,4.1.484,7.154c0,0,.55-5.1-1.083-6.859l-2.33,1.354s2.273,4.291.73,7.786c0,0,.4-5.366-1.214-7.449l-2.108,1.641s2.133,4.217.82,7.121c0,0-.172-6.243-1.288-6.711a12.828,12.828,0,0,0-2.125,2.289s1.46,3.06.558,4.685c0,0-.558-4.16-1.017-4.176,0,0-1.83,2.748-2.018,4.635a9.994,9.994,0,0,1,1.575-4.923,5.487,5.487,0,0,0-2.806,1.46s.287-1.953,3.281-2.125a12.8,12.8,0,0,1,1.928-2.215,12.09,12.09,0,0,0-4.759.55s1.583-1.838,5.3-1l2.076-1.7s-3.9-.533-5.546.057c0,0,1.9-1.641,6.1-.443l2.264-1.354a20.4,20.4,0,0,0-5.3-.451s2.084-1.132,5.964.09l1.641-.73s-2.461-.476-3.142-.55-.755-.271-.755-.271a8.467,8.467,0,0,1,4.578.509S1089.6,734.288,1089.55,734.074Z"
      transform="translate(597.348 -53.009)" />
    <ellipse class="b" cx="13.841" cy="2.338" rx="13.841" ry="2.338" transform="translate(1659.583 695.964)" />
    <path class="a"
      d="M1039.74,779.543s-23.612-1.419-20.789,15.137a4.044,4.044,0,0,0,2.1,4.258s0-1.231,2.461-.82a10.776,10.776,0,0,0,2.568.123,5.351,5.351,0,0,0,3.134-1.3h0s6.637-2.74,9.213-13.586c0,0,1.912-2.371,1.838-2.978l-3.987,1.706s1.362,2.872.3,5.259c0,0-.131-5.16-.894-5.037-.156,0-2.076.993-2.076.993s2.347,5.013.574,8.647c0,0,.673-6.17-1.3-8.278l-2.806,1.641s2.74,5.177.886,9.394c0,0,.476-6.473-1.477-9.025l-2.535,1.977s2.568,5.1,1,8.6c0,0-.2-7.531-1.559-8.1a15.17,15.17,0,0,0-2.56,2.765s1.764,3.7.673,5.653c0,0-.673-5.021-1.222-5.046,0,0-2.215,3.323-2.461,5.6a12.116,12.116,0,0,1,1.911-5.923,6.687,6.687,0,0,0-3.4,1.756s.345-2.346,3.938-2.551c0,0,1.83-2.527,2.322-2.683,0,0-3.577-.3-5.743.665,0,0,1.912-2.215,6.4-1.206l2.51-2.051s-4.709-.648-6.7.066c0,0,2.3-1.961,7.384-.533l2.732-1.641a24.8,24.8,0,0,0-6.4-.55s2.519-1.362,7.2.115l1.953-.878s-2.945-.582-3.8-.673-.911-.328-.911-.328a10.2,10.2,0,0,1,5.521.615S1039.8,779.806,1039.74,779.543Z"
      transform="translate(606.94 -61.173)" />
    <ellipse class="b" cx="16.712" cy="2.822" rx="16.712" ry="2.822" transform="translate(1613.698 736.362)" />
    <ellipse class="b" cx="85.119" cy="8.541" rx="85.119" ry="8.541" transform="translate(1213.02 746.477)" />
    <ellipse class="b" cx="64.608" cy="3.987" rx="64.608" ry="3.987" transform="translate(975.648 747.101)" />
    <path class="c"
      d="M397.262,85.223c23.965-21.331,61.589-25.7,95.825-24.006,107.549,5.341,204.63,57.265,288.608,116,30.4,21.257,60.334,44.171,80.065,73.452,40.2,59.6,28.255,142.163-27.6,191.265-19.009,16.7-42.047,29.535-65.7,40.865C726.4,502.99,681.028,519.193,633.3,523.82c-34.039,3.282-68.5.615-102.331-3.979-94.545-12.831-187.343-41.185-265.119-89.672C231.741,408.838,199.58,382.42,185.518,348s-5.062-78.03,29.773-98.4c14.407-8.426,31.635-12.232,48.5-15.8,24.826-5.259,50.046-10.444,72.451-21.142,23.136-11.043,50.53-32.4,45.944-56.839C377.276,129.591,373.33,106.554,397.262,85.223Z"
      transform="translate(757.705 67.877)" />
    <path class="d" d="M641,403.555V246.9h21.33V200.14H509.485V246.9h21.331V403.555a155.322,155.322,0,1,0,110.218.013Z"
      transform="translate(712.551 42.87)" />
    <rect class="e" width="110.215" height="2.108" transform="translate(1243.334 289.289)" />
    <path class="a"
      d="M514,612.212s93.528-1.641,140.292-25.047,73.485-2.51,70.975,11.691-15.859,41.743-69.3,45.123S514,612.212,514,612.212Z"
      transform="translate(697.576 -24.74)" />
    <path class="e"
      d="M514,612.212s93.528-1.641,140.292-25.047,73.485-2.51,70.975,11.691-15.859,41.743-69.3,45.123S514,612.212,514,612.212Z"
      transform="translate(697.576 -24.74)" />
    <path class="a"
      d="M465.142,601.486S455.149,740.1,586.211,742.6,716.47,603.127,716.47,603.127s-48.4,52.6-162.821,9.18C553.649,612.34,494.365,596.473,465.142,601.486Z"
      transform="translate(706.381 -29.028)" />
    <path class="e"
      d="M716.046,604.2c-2.617,31.931-19.592,131.883-129.782,129.774C478.247,731.93,466.015,637.5,465.055,604.281c-.6,17.828-.066,136.559,121.184,138.881C717.334,745.623,716.5,603.69,716.5,603.69S716.333,603.9,716.046,604.2Z"
      transform="translate(706.378 -29.599)" />
    <circle class="f" cx="17.007" cy="17.007" r="17.007" transform="translate(1276.381 495.642)" />
    <circle class="f" cx="10.526" cy="10.526" r="10.526" transform="translate(1292.576 434.086)" />
    <circle class="f" cx="10.526" cy="10.526" r="10.526" transform="translate(1269.088 373.333)" />
    <path class="g"
      d="M486.914,539.241c-.9,7.171-.722,16.146,5.686,19.493-5.374-2.806,16.655-34.622,13.529-41.12C499.442,503.75,487.734,532.579,486.914,539.241Z"
      transform="translate(702.511 -13.473)" />
    <circle class="f" cx="17.007" cy="17.007" r="17.007" transform="translate(1254.098 177.737)" />
    <circle class="f" cx="12.643" cy="12.643" r="12.643" transform="translate(1309.485 152.944)" />
    <circle class="f" cx="6.572" cy="6.572" r="6.572" transform="translate(1279.113 125)" />
    <path class="d" d="M359.915,319.48H222.47v40.767h20.945V678.291a47.788,47.788,0,1,0,95.576,0V360.246h20.929Z"
      transform="translate(749.928 21.439)" />
    <path class="a"
      d="M286.81,455.553s34.015-12.15,43.482-3.511c0,0-13.775,20.248-26.459,19.436S286.81,455.553,286.81,455.553Z"
      transform="translate(738.374 -1.81)" />
    <path class="e"
      d="M286.81,455.553s34.015-12.15,43.482-3.511c0,0-13.775,20.248-26.459,19.436S286.81,455.553,286.81,455.553Z"
      transform="translate(738.374 -1.81)" />
    <path class="a"
      d="M327.026,452.567V683.4a29.158,29.158,0,0,1-29.158,29.158h0A29.158,29.158,0,0,1,268.71,683.4V452.567s14.037-3.782,27.263,4.324S327.026,452.567,327.026,452.567Z"
      transform="translate(741.625 -2.303)" />
    <rect class="e" width="95.571" height="1.879" transform="translate(993.328 381.431)" />
    <path class="e"
      d="M297.868,746.166h0A29.158,29.158,0,0,1,268.71,717v14.579a29.158,29.158,0,0,0,29.158,29.158h0a29.158,29.158,0,0,0,29.158-29.158V717a29.158,29.158,0,0,1-29.158,29.166Z"
      transform="translate(741.625 -49.948)" />
    <circle class="f" cx="5.94" cy="5.94" r="5.94" transform="translate(1033.561 415.716)" />
    <circle class="f" cx="3.782" cy="3.782" r="3.782" transform="translate(1055.155 396.814)" />
    <circle class="f" cx="3.782" cy="3.782" r="3.782" transform="translate(1028.696 389.258)" />
    <path class="g"
      d="M256.914,504.693c-.9,7.171-.722,16.146,5.686,19.493-5.382-2.806,16.655-34.614,13.529-41.12C269.425,469.218,257.734,498.039,256.914,504.693Z"
      transform="translate(743.814 -7.27)" />
    <circle class="f" cx="14.431" cy="14.431" r="14.431" transform="translate(1037.392 286.549)" />
    <circle class="f" cx="10.731" cy="10.731" r="10.731" transform="translate(997.799 265.505)" />
    <circle class="f" cx="5.579" cy="5.579" r="5.579" transform="translate(1033.873 241.795)" />
    <g transform="translate(1453.805 255.932)">
      <rect class="b" width="23.333" height="23.333" transform="translate(68.793 86.97)" />
      <rect class="b" width="23.333" height="23.333" transform="translate(157.866 86.97)" />
      <rect class="b" width="23.333" height="23.333" transform="translate(68.793 144.522)" />
      <rect class="b" width="23.333" height="23.333" transform="translate(157.866 144.522)" />
      <rect class="b" width="23.333" height="23.333" transform="translate(68.793 202.067)" />
      <rect class="b" width="23.333" height="23.333" transform="translate(157.866 202.067)" />
      <rect class="b" width="23.333" height="23.333" transform="translate(68.793 259.619)" />
      <rect class="b" width="23.333" height="23.333" transform="translate(157.866 259.619)" />
      <rect class="b" width="23.333" height="23.333" transform="translate(68.793 317.172)" />
      <path class="b" d="M838.4,717.377V702.33h23.325v12.905Z" transform="translate(-769.607 -327.614)" />
      <ellipse class="b" cx="79.942" cy="12.84" rx="79.942" ry="12.84" transform="translate(22.513 480.747)" />
      <path class="h"
        d="M945.34,444.693s-3.232-.451-3.232-5.152-2.313-13.5-2.313-13.5h0s-2-15.317-4.767-17.746S928.71,391.6,928.71,391.6s-.607-7.737-1.846-9.4-2.912-5.743-5.382-11.56-12.741-9.8-12.741-9.8-18.615-10.8-23.891-14.316h0a8.145,8.145,0,0,1-1.35-1.024c-.919-1.2-4.923-1.222-4.923-1.222a81.063,81.063,0,0,1-.952-8.434v-.886a28.387,28.387,0,0,0,12.479-15.44c.1-.312.18-.632.271-.952a2.667,2.667,0,0,0,1.641-1.444c.468-1.058.484-2.289,1.075-3.282.689-1.165,2-1.789,3.036-2.658,2.609-2.223,3.282-5.956,3.159-9.345-.082-2.757-.525-5.53-.353-8.262a3.254,3.254,0,0,1,.049-.689c.049-.4.107-.82.181-1.214.4-2.035,1.28-3.954,1.772-5.973a7.684,7.684,0,0,0-.607-6.03c-1.682-2.551-5.185-3.06-8.262-3.282-3.487-.3-6.563.082-8.836-2.814a30.934,30.934,0,0,0-3.511-4.233c-.459-.427-4.922-3.159-4.922-3.331a19.945,19.945,0,0,0-13.947-1.075c-2.322.673-4.5,1.772-6.85,2.322-5.054,1.2-10.879-.1-15.178,2.8-2.4,1.641-3.831,4.258-5.177,6.793q-1.641,3.134-3.331,6.276c-1.821,3.438-3.659,6.933-4.422,10.739a18.189,18.189,0,0,0-.3,2.519h0v1.3a4.5,4.5,0,0,0,.049.82,4.656,4.656,0,0,0,.057.509c.057.172.074.558.123.82s.148.73.246,1.083a1.663,1.663,0,0,0,.148.459c.049.156.181.55.287.82s.115.287.18.427a7.679,7.679,0,0,0,.418.82c.066.107.115.213.18.32a9.293,9.293,0,0,0,.755,1.1c1.748,2.19,4.34,3.585,6.252,5.636v.919a28.083,28.083,0,0,0,12.864,22.89c0,.312.041.632.057.952a46.842,46.842,0,0,1-.09,7.3,3.462,3.462,0,0,0-2.724-1.214,3.9,3.9,0,0,0-1.05.09l-.074-.057h0v.074c-1.8.443-4.028,2.322-6.153,7.663,0,0-6.465,7.285-11.388,6.982s-17.385,7.589-17.385,7.589-12.159,7.884-14.768,15.924a111.311,111.311,0,0,1-5.243,13.356l-15.071,30.946h0L770.5,448.532s1.534,10.92,1.231,12.593,6.309,16.687,6.309,16.687,21.848,38.379,30.774,40.348l.64-.443a5.585,5.585,0,0,0,1.206.443l1.838-1.288a19.208,19.208,0,0,1-.148,4.324c-1.222,3.8.468,28.526,2.617,33.375S816.353,623,816.353,623l-.3,5.6a2.38,2.38,0,0,0,.074.492l-.074,1.329.221.115a15.854,15.854,0,0,1-.221,5.349c-.771,2.461-1.083,9.41-1.083,9.41s-6.153,39.282-3.232,47.174,5.39,16.54,5.39,16.54,3.077,9.845.148,11.486-11.223,4.553-9.533,8.647c1.559,3.79,7.474,13.947,8.352,15.432l-.074.82-1.206,13.069a16.407,16.407,0,0,0,1.387,4.988c1.321,2.855,3.881,5.8,8.77,5.48.82-.057,1.764-.148,2.691-.271,8.934-1.206,19.928-5.193,19.928-5.193a7.858,7.858,0,0,1-1.551-1.288h0a4.5,4.5,0,0,1-1.37-3.282c.131-2.387-4.324-13.717-5.439-16.515l-.254-.624s10.157-10.625,8.467-20.026c0,0-11.24-6.563-7.54-10.173s10.313-13.947,10.313-13.947.3-38.683,0-44.45a47.908,47.908,0,0,1,.566-12.011c.123-.591.271-1.173.427-1.756a104.8,104.8,0,0,0,15.473,1.173q2.839,0,5.743-.115,0,.82.074,1.772c.427,9.583,1.222,26.393,1.871,32.636.919,8.943,6,33.071,6,33.071s-9.689,6.211,1.69,21.544c0,0,0,5.546-.755,6.358h0a69.446,69.446,0,0,0-1.944,8.016c-.476,2.88-.673,5.809.1,7.318,1.846,3.626,12.922,3.331,12.922,3.331h0a1.759,1.759,0,0,1,.271-.041A15.809,15.809,0,0,1,904.368,758c4.209,3.38,20.174,1.9,28.83.82,3.388-.435,5.653-.82,5.653-.82a3.321,3.321,0,0,0,.115-1.181h0c-.09-2.125-1.756-6.785-13.045-10.944,0,0-10.616-7.138-10.469-13.357h-1.46c.771-.024,1.313-.024,1.313-.024s-4.16-15.17-2.461-16.408-3.388-18.049-3.388-18.049-2.913-28.223-3.077-30.191a17.348,17.348,0,0,1,.771-5l-.771-15.481s-.148-5.144,0-6.818a32.063,32.063,0,0,0-.345-4.34c-.074-.574-.148-1.173-.23-1.764,3.979-1.009,6.563-1.936,6.563-1.936l-.459-53.861c3.38-6.563,4-20.97,3.987-31.176,0-6.563-.3-11.42-.3-11.42l4.619-7.54s1.067-9.025-.623-11a1.894,1.894,0,0,1,.205-2.584,8.589,8.589,0,0,1,1.026-.722,1.291,1.291,0,0,1-.107-.181,8.162,8.162,0,0,1,1.025-.73s-1.641-2.543-.172-3.618c1.378.935,2.609,1.682,3.544,2.215-.066.6-.131.943-.131.943l.394-.82,1.452.82s7.236-14.415,7.08-16.531,4.923-11.076,4.923-11.076.615-4.709,3.388-6.678,2.15-16.236,2.15-16.236.771-7.433,2.617-10.46S945.34,444.693,945.34,444.693Zm-138.454-6.325.14,3.438c-.821-1.321-1.411-2.264-1.411-2.264Z"
        transform="translate(-770.5 -264.154)" />
      <path class="i"
        d="M957.392,554.924l-1.772,7.548s-14.193-7.261-16.745-16.449,4.274-12.692,4.274-12.692l13.233,5.6Z"
        transform="translate(-800.634 -312.492)" />
      <path class="e"
        d="M957.392,554.924l-1.772,7.548s-14.193-7.261-16.745-16.449,4.274-12.692,4.274-12.692l13.233,5.6Z"
        transform="translate(-800.634 -312.492)" />
      <path class="i"
        d="M857.45,866.227s-13.127,4.824-22.151,5.431c-4.791.32-7.31-2.617-8.606-5.448a16.65,16.65,0,0,1-1.362-4.922l1.19-13,.624-6.916,19.173-4.988,2.716,8.311.254.624c1.083,2.781,5.464,14.054,5.333,16.408A4.5,4.5,0,0,0,855.956,865a7.617,7.617,0,0,0,1.493,1.223Z"
        transform="translate(-780.346 -366.913)" />
      <path class="i"
        d="M960.829,859.417a3.283,3.283,0,0,1-.115,1.181s-28.075,4.676-33.818,0a15.2,15.2,0,0,0-11.781-3.47s-10.862.3-12.676-3.282c-.755-1.5-.558-4.414-.09-7.277a69.783,69.783,0,0,1,1.9-7.974l.435-.345,2.584-2.076,30.257-.894h.23c-.148,6.186,10.263,13.283,10.263,13.283C959.106,852.665,960.739,857.3,960.829,859.417Z"
        transform="translate(-794.103 -366.716)" />
      <path class="e"
        d="M960.836,861.886a3.38,3.38,0,0,1-.123,1.181s-28.075,4.676-33.81,0a15.2,15.2,0,0,0-11.789-3.47s-10.871.3-12.684-3.282c-.747-1.5-.558-4.414-.09-7.285,4.184.418,10.789,1.46,13.381,3.954,3.922,3.774,10.567,7.548,14.636,7.851C933.574,861.033,952.7,861.64,960.836,861.886Z"
        transform="translate(-794.102 -369.185)" />
      <path class="j"
        d="M883.443,388.093c-10.83-4.209-24.76-18.115-21.282-24.613a14.712,14.712,0,0,0,1.354-5.218,47.635,47.635,0,0,0,.1-7.384,101.386,101.386,0,0,0-1.452-12.019s33.81.763,31.841,5.743c-.574,1.469-.673,4-.509,6.834s.566,6.055.993,8.77c.582,3.717,1.181,6.563,1.181,6.563s-2.076,2.9-3.282,3.052S898.981,394.124,883.443,388.093Z"
        transform="translate(-786.863 -277.569)" />
      <path class="e"
        d="M849.507,845.264l-.254.279c-10.108-12.224-22.332,3.019-22.332,3.019l-.18-.328.624-6.916,19.173-4.988,2.716,8.311Z"
        transform="translate(-780.599 -366.905)" />
      <path class="e"
        d="M938.288,836.134s-7.384-.148-11.322,3.331-22.972.747-22.151,0a2.838,2.838,0,0,0,.427-1.255l2.584-2.076,30.257-.894C938.2,835.814,938.288,836.134,938.288,836.134Z"
        transform="translate(-794.615 -366.709)" />
      <path class="a"
        d="M860.254,715.773a23.009,23.009,0,0,0-1.247,4.209,48.167,48.167,0,0,0-.566,11.945c.3,5.743,0,44.229,0,44.229s-6.49,10.263-10.116,13.882,7.384,10.116,7.384,10.116c1.641,9.361-8.3,19.928-8.3,19.928-10.108-12.224-22.332,3.011-22.332,3.011s-6.645-11.486-8.3-15.588,6.49-6.933,9.353-8.606-.148-11.486-.148-11.486-2.412-8.606-5.284-16.458,3.167-46.928,3.167-46.928.312-6.949,1.058-9.369a15.868,15.868,0,0,0,.221-5.316c-.049-.6-.107-1.091-.148-1.436s-.074-.492-.074-.492l.115-.2,4.1-7.646S862.223,710.958,860.254,715.773Z"
        transform="translate(-778.77 -342.345)" />
      <path class="a"
        d="M936.347,812.634s-7.384-.156-11.322,3.282-22.972.755-22.151,0,.747-6.334.747-6.334c-11.166-15.252-1.641-21.438-1.641-21.438s-4.98-24-5.882-32.9c-.632-6.211-1.411-22.972-1.83-32.464-.18-4.1-.287-6.933-.287-6.933l9.041-1.8,1.173-.23,22-4.422s.607,4.1,1.017,7.458a32.746,32.746,0,0,1,.336,4.324c-.139,1.641,0,6.785,0,6.785l.755,15.391a17.754,17.754,0,0,0-.755,4.98c.156,1.969,3.019,30.036,3.019,30.036s4.98,16.753,3.282,17.959S936.347,812.634,936.347,812.634Z"
        transform="translate(-792.674 -344.111)" />
      <path class="e"
        d="M894.121,344.633c-.574,1.469-.673,4-.509,6.834a28.1,28.1,0,0,1-29.88-.558,101.4,101.4,0,0,0-1.452-12.019S896.09,339.653,894.121,344.633Z"
        transform="translate(-786.982 -277.575)" />
      <path class="j" d="M904.713,317.665a28.069,28.069,0,1,1-56.133.673v-.673a28.075,28.075,0,0,1,56.15,0Z"
        transform="translate(-784.521 -268.722)" />
      <path class="e"
        d="M883.443,392.341c-10.83-4.209-24.76-18.115-21.282-24.613a14.711,14.711,0,0,0,1.354-5.218L878.34,374.7l9.172,7.523,6.974-17.746c.582,3.716,1.181,6.563,1.181,6.563s-2.076,2.9-3.282,3.052S898.981,398.371,883.443,392.341Z"
        transform="translate(-786.863 -281.816)" />
      <path class="k"
        d="M903.6,427.379,891.22,635.356l-16.146,1.058L833.26,515.821l6.859-143.172,1.452-30.249,18.591,15.268,9.172,7.523,7.179-18.271,13.348,11.634Z"
        transform="translate(-768.684 -262.978)" />
      <path class="e"
        d="M862.082,715.788A23.017,23.017,0,0,0,860.835,720a118.961,118.961,0,0,1-33.883-10.575l-.222-.115.074-1.321V707.3l4.1-7.646S864.051,710.972,862.082,715.788Z"
        transform="translate(-780.598 -342.36)" />
      <path class="e" d="M903.281,722.8a83.145,83.145,0,0,1-9.074,1.042c-.18-4.1-.287-6.933-.287-6.933l9.09-1.838Z"
        transform="translate(-792.663 -345.129)" />
      <path class="e"
        d="M929.491,716.858c-5.833,1.518-14.85,3.224-22.906,2.158l-.115-5.193,22-4.422S929.056,713.469,929.491,716.858Z"
        transform="translate(-794.917 -344.111)" />
      <path class="e"
        d="M883.14,657.382c-33.64,5.742-64.44-10.723-64.44-10.723l.3-5.579s.763-63.246-1.354-68.1-3.766-29.4-2.568-33.153-4.373-60.358-4.373-60.358l-.9-22.972-33.055-13.43,14.768-30.79a111.253,111.253,0,0,0,5.136-13.291c2.568-8,14.489-15.851,14.489-15.851s12.224-7.843,17.057-7.548,11.166-6.941,11.166-6.941c4.676-11.921,8.91-6.563,8.91-6.563a10.552,10.552,0,0,1-.23,1.764c-1.641,13.086,26.532,54.435,26.934,55.173h0L877.7,484.38l2.716,82.707Z"
        transform="translate(-771.62 -281.525)" />
      <path class="i"
        d="M882.035,657.382c-33.637,5.743-64.452-10.723-64.452-10.723l.3-5.579s.755-63.246-1.362-68.1-3.766-29.429-2.56-33.211-4.4-60.334-4.4-60.334l-.911-22.972L775.6,443.038l14.768-30.79a113.007,113.007,0,0,0,5.136-13.283c2.568-7.974,14.53-15.834,14.53-15.834s12.224-7.843,17.048-7.548,11.19-6.933,11.19-6.933c4.685-11.921,9.845-6.563,9.845-6.563,0,.574-.492.82-.23,1.764,3.61,12.692,25.63,54.435,26.032,55.173h0l2.716,65.355,2.658,82.748Z"
        transform="translate(-771.417 -281.525)" />
      <path class="e"
        d="M887.5,421.28c-3.618-1.51-22.783-23.39-22.783-23.39v-4.98c-.7-1.641-4.849-.64-8.2.509l1.444-30.249,1.641,1.362C863.18,377.216,887.1,420.55,887.5,421.28Z"
        transform="translate(-785.945 -281.935)" />
      <path class="i"
        d="M888.606,419.086c-3.626-1.518-22.791-23.39-22.791-23.39v-4.988c-.7-1.641-4.84-.64-8.2.509L859.029,361l1.641,1.354C864.288,375.021,888.2,418.347,888.606,419.086Z"
        transform="translate(-786.143 -281.545)" />
      <path class="e"
        d="M827.476,564.272c.451,0,23.39-2.412,23.39-2.412s13.89,27.32,12.979,33.957-2.56,12.528-8.147,11.486-30.068.82-30.068.82Z"
        transform="translate(-780.4 -317.616)" />
      <path class="i"
        d="M826.366,562.062c.459,0,23.4-2.412,23.4-2.412s13.882,27.361,12.979,33.924S860.176,606.1,854.6,605.06s-30.077.82-30.077.82Z"
        transform="translate(-780.201 -317.219)" />
      <path class="j"
        d="M845.094,547s21.052,11.322,21.5,14.768-10.715-1.51-13.127-2.117a31.289,31.289,0,0,0-4.832-.755l-16.088.435Z"
        transform="translate(-781.643 -314.947)" />
      <circle class="e" cx="2.215" cy="2.215" r="2.215" transform="translate(93.454 136.326)" />
      <circle class="l" cx="2.215" cy="2.215" r="2.215" transform="translate(93.454 135.424)" />
      <circle class="e" cx="2.215" cy="2.215" r="2.215" transform="translate(97.532 232.217)" />
      <circle class="l" cx="2.215" cy="2.215" r="2.215" transform="translate(97.532 231.307)" />
      <circle class="e" cx="2.215" cy="2.215" r="2.215" transform="translate(95.67 184.272)" />
      <circle class="l" cx="2.215" cy="2.215" r="2.215" transform="translate(95.67 183.369)" />
      <path class="i"
        d="M943,525.716s1.51,2.264,0,3.282.148,3.626.148,3.626-3.766,2.2-2.109,4.192.607,10.944.607,10.944l-4.529,7.54s.271,4.832.287,11.363c0,10.19-.6,24.514-3.913,31.045l.443,53.582s-15.859,5.8-29.133,4.028l-1.969-85.98s2.872-48.758,3.93-58.11a97.347,97.347,0,0,0,.755-14.644s-.451-14.636-1.969-21.421c0,0-1.641-29.437-1.8-37.583-.074-3.9.131-15.268.361-26.081.254-11.822.541-22.972.541-22.972l-2.995-23.7s2.995-.3,3.9.9a8.644,8.644,0,0,0,1.313,1.009h0c5.177,3.5,23.439,14.243,23.439,14.243s10.108,4.02,12.528,9.779,4.1,9.845,5.275,11.486,1.813,9.353,1.813,9.353,3.479,14.193,6.194,16.6,4.668,17.664,4.668,17.664l-24,18.87s-2.109,31.389-2.56,32.6S943,525.716,943,525.716Z"
        transform="translate(-794.052 -282.226)" />
      <path class="i"
        d="M943.9,525.653s1.5,2.264,0,3.282.139,3.626.139,3.626-3.766,2.2-2.109,4.192.607,10.944.607,10.944l-4.512,7.54s.271,4.832.3,11.363c0,10.19-.6,24.514-3.913,31.045l.451,53.582s-15.859,5.8-29.133,4.028l-1.961-85.98s2.863-48.758,3.93-58.11a96.441,96.441,0,0,0,.747-14.645s-.451-14.636-1.961-21.421c0,0-1.641-29.437-1.813-37.583-.074-3.9.131-15.268.361-26.081.254-11.822.542-22.972.542-22.972L901.62,364.44s3.954,0,4.865,1.222a7.783,7.783,0,0,0,1.313,1.009h0c5.169,3.5,23.431,14.243,23.431,14.243s10.083,4.02,12.544,9.779,4.1,9.845,5.275,11.486,1.813,9.353,1.813,9.353,3.479,14.193,6.194,16.6,4.676,17.664,4.676,17.664l-24,18.87s-2.109,31.389-2.568,32.6S943.9,525.653,943.9,525.653Z"
        transform="translate(-794.046 -282.163)" />
      <path class="e"
        d="M915.361,395.822l2.174,6.317-11.412,11.486c.254-11.822.541-22.972.541-22.972L902.71,366.64s3.954,0,4.865,1.222a7.786,7.786,0,0,0,1.313,1.009h0l9.7,27.968Z"
        transform="translate(-794.242 -282.558)" />
      <path class="i"
        d="M914.231,393.609l2.174,6.309L905,411.4c.246-11.822.541-22.972.541-22.972L901.58,364.41s3.963,0,4.865,1.222a8.206,8.206,0,0,0,1.313,1.009h0l9.755,27.993Z"
        transform="translate(-794.039 -282.158)" />
      <path class="e"
        d="M904.713,317.665a27.98,27.98,0,0,1-1.378,8.7,1.165,1.165,0,0,1-.886-.213c-.222-7.384-3.848-14.325-8.319-20.223a21.419,21.419,0,0,0-4.512-4.676,8.836,8.836,0,0,0-6.12-1.731c-2.461.336-4.635,2.01-7.121,2.223-3.282.271-6.219-2-9.476-2.108a9.287,9.287,0,0,0-6.965,3.232,19,19,0,0,0-3.733,6.916,40.516,40.516,0,0,0-2.084,11.945c-.041,2.3-.263,5.177-2.4,6.014a12.224,12.224,0,0,0-3.093-9.353l-.049-.057v-.673a28.075,28.075,0,1,1,56.15,0Z"
        transform="translate(-784.521 -268.722)" />
      <path class="m"
        d="M886.435,269.078a19.329,19.329,0,0,0-13.635-1.067c-2.273.673-4.414,1.764-6.719,2.314-4.922,1.19-10.665-.1-14.891,2.781-2.346,1.641-3.758,4.233-5.07,6.76l-3.282,6.243c-1.789,3.421-3.593,6.9-4.34,10.665s-.3,7.983,2.092,11.018c1.731,2.2,4.307,3.585,6.194,5.661a12.306,12.306,0,0,1,3.085,9.377c2.133-.82,2.346-3.717,2.4-6.014a40.565,40.565,0,0,1,2.084-11.945,19,19,0,0,1,3.733-6.916,9.3,9.3,0,0,1,6.965-3.241c3.282.115,6.227,2.387,9.476,2.108,2.461-.2,4.644-1.879,7.121-2.215a8.794,8.794,0,0,1,6.12,1.731,21.017,21.017,0,0,1,4.5,4.676c4.479,5.907,8.114,12.815,8.327,20.223.927.673,2.264-.213,2.724-1.263s.476-2.281,1.058-3.282c.673-1.157,1.961-1.78,2.97-2.65,2.56-2.207,3.2-5.923,3.1-9.3s-.755-6.793-.115-10.108c.386-2.026,1.255-3.938,1.731-5.948a7.777,7.777,0,0,0-.591-6c-1.641-2.535-5.095-3.044-8.106-3.282-3.421-.3-6.481.082-8.664-2.8a32.065,32.065,0,0,0-3.446-4.217C890.808,271.965,886.435,269.258,886.435,269.078Z"
        transform="translate(-782.652 -264.708)" />
      <path class="e"
        d="M785.811,476.892l-8.565-15.842L774.53,485.5s1.51,10.862,1.206,12.528,6.186,16.6,6.186,16.6,21.438,38.191,30.191,40.151l29.535-21.134-7.843-9.96s-2.716-1.058-3.4,0c0,0-14.571-25.056-16.072-26.861s-1.214-5.439-1.214-5.439-2.264-2.412-1.51-4.676-4.332-10.108-4.332-10.108l4.676-4.373Z"
        transform="translate(-771.224 -299.512)" />
      <path class="i"
        d="M777.3,458.84l-2.264,1.813L772.32,485.1s1.51,10.862,1.206,12.528,6.194,16.6,6.194,16.6,21.429,38.191,30.183,40.151l29.584-21.134-7.851-9.96s-2.716-1.058-3.4,0c0,0-14.562-25.056-16.072-26.861s-1.206-5.439-1.206-5.439-2.264-2.412-1.51-4.676-4.381-10.108-4.381-10.108l4.676-4.373Z"
        transform="translate(-770.827 -299.115)" />
      <path class="e"
        d="M945.912,572.423c1.641,1.994.607,10.953.607,10.953l-4.529,7.49s.271,4.84.287,11.371l-7.614,2.379a4.529,4.529,0,0,1-5.874-4.463l1.321-42.334,17.762,6.785c-1.51,1.05.148,3.626.148,3.626S944.254,570.43,945.912,572.423Z"
        transform="translate(-798.925 -316.89)" />
      <path class="i"
        d="M947.015,571.322c1.641,1.985.607,10.944.607,10.944l-4.512,7.5s.271,4.832.3,11.363l-7.753,2.42a4.422,4.422,0,0,1-5.743-4.356l1.321-42.481,17.754,6.8c-1.518,1.05.139,3.626.139,3.626S945.358,569.328,947.015,571.322Z"
        transform="translate(-799.126 -316.691)" />
      <path class="j"
        d="M954.829,548.454s-1.206,7.7-4.225,8.155-4.373,12.462-7.384,12.044-1.017-11.174-.911-13.258-3.282-10.715-.755-12.676,10.567,0,10.567,0Z"
        transform="translate(-801.049 -314.022)" />
      <path class="e"
        d="M960.52,475.086l5.686-11.486s2.273,8.754,2.273,13.43,3.167,5.136,3.167,5.136,3.47,4.1,1.641,7.1-2.56,10.411-2.56,10.411.6,14.185-2.117,16.146-3.323,6.645-3.323,6.645-4.98,8.9-4.824,11.018-6.941,16.449-6.941,16.449,3.47-17.811-16.753-25.507c0,0-.156-6.038,1.354-7.7s3.864-2.461,2.387-10.8-.427-18.386-.427-20.4S944.612,471,944.612,471Z"
        transform="translate(-800.357 -299.97)" />
      <path class="i"
        d="M963.451,461.6l4.972,1.641s2.273,8.754,2.273,13.43,3.167,5.136,3.167,5.136,3.47,4.1,1.641,7.1-2.568,10.411-2.568,10.411.607,14.185-2.109,16.146-3.282,6.645-3.282,6.645-4.98,8.9-4.824,11.018-6.949,16.449-6.949,16.449,3.47-17.811-16.753-25.507c0,0-.148-6.038,1.362-7.7s3.864-2.461,2.387-10.8-.427-18.386-.427-20.4,4.529-14.538,4.529-14.538Z"
        transform="translate(-800.762 -299.611)" />
      <path class="e" d="M834.92,823.883s7.925-4.98,13.127-1.362S834.92,823.883,834.92,823.883Z"
        transform="translate(-782.068 -364.188)" />
      <path class="e" d="M910,805.69a16.043,16.043,0,0,1,12.905,5.439C928.8,817.472,910,805.69,910,805.69Z"
        transform="translate(-795.551 -361.394)" />
      <g class="n" transform="translate(55.506 20.598)">
        <path
          d="M909.912,317.827c-1.009.878-2.3,1.493-2.978,2.65-.574.993-.591,2.223-1.05,3.282s-1.8,1.936-2.732,1.263c-.213-7.384-3.848-14.316-8.319-20.223a20.979,20.979,0,0,0-4.5-4.668,8.819,8.819,0,0,0-6.129-1.739c-2.461.336-4.627,2.01-7.113,2.223-3.282.271-6.227-2-9.484-2.108a9.254,9.254,0,0,0-6.957,3.233,19,19,0,0,0-3.733,6.916,40.564,40.564,0,0,0-2.084,11.945c-.049,2.289-.263,5.144-2.379,6a11.357,11.357,0,0,1,0,1.83c2.141-.82,2.355-3.717,2.4-6.014a40.567,40.567,0,0,1,2.084-11.945,19,19,0,0,1,3.733-6.916,9.287,9.287,0,0,1,6.957-3.241c3.282.115,6.235,2.387,9.484,2.108,2.461-.2,4.644-1.879,7.113-2.215a8.819,8.819,0,0,1,6.128,1.731,21.019,21.019,0,0,1,4.5,4.676c4.471,5.907,8.106,12.815,8.319,20.223.935.673,2.273-.213,2.732-1.263s.476-2.281,1.05-3.282c.673-1.157,1.969-1.78,2.978-2.65,2.56-2.207,3.2-5.923,3.1-9.3v-.312C912.874,312.971,912.095,315.949,909.912,317.827Z"
          transform="translate(-840.722 -290.893)" />
        <path
          d="M846.773,318.68c-1.879-2.076-4.455-3.47-6.186-5.669A11.9,11.9,0,0,1,838.2,306.3a12.644,12.644,0,0,0,2.387,8.524c1.731,2.2,4.307,3.585,6.186,5.661a12.306,12.306,0,0,1,3.1,7.318,12.306,12.306,0,0,0-3.1-9.123Z"
          transform="translate(-838.155 -292.32)" />
        <path
          d="M927.8,290.843c-.484,2.01-1.346,3.922-1.739,5.948a19,19,0,0,0-.254,4.151,15.935,15.935,0,0,1,.254-2.338c.394-2.026,1.255-3.938,1.739-5.948a10.308,10.308,0,0,0,.271-3.4,11.376,11.376,0,0,1-.271,1.583Z"
          transform="translate(-853.891 -289.26)" />
      </g>
    </g>
  </g>
</svg>