<svg xmlns="http://www.w3.org/2000/svg" width="347.311" height="353.394" viewBox="0 0 347.311 353.394"><defs><style>.a{opacity:0.05;}.b{fill:#6c63ff;}.c{fill:#e9c46a;}.d{fill:#00cba9;}</style></defs><g class="a" transform="translate(-448 -4275)"><path class="b" d="M154,343.966a12.416,12.416,0,0,1-15.82-14.588c7.224-30.053,34.692-103.546,134.758-134.458,43.345-13.39,84.914-13.618,123.5-.684,31.744,10.6,52.817,27.178,62.9,35.193a12.313,12.313,0,0,1,2.017,17.3l-.076.095a12.6,12.6,0,0,1-17.561,1.993c-18.263-14.39-73.684-58.105-163.507-30.358C192.5,245.549,168.676,308.922,162.5,334.85a12.231,12.231,0,0,1-8.5,9.117Z" transform="translate(310.129 4090.296)"/><path class="c" d="M426.738,514.185a12.346,12.346,0,0,1-3.068.577c-78.175,4.211-127.913-60.735-129.955-63.443l-.379-.625c-1.246-1.933-31.342-47.723-18.093-84.088,6.086-16.625,19.544-28.294,40.116-34.649,19.133-5.91,34.789-4.162,48.115,5.354,10.927,7.753,17.93,19.315,24.717,30.48,14.116,23.182,22.768,34.977,49.6,28.172,11.781-2.99,17.282-12.2,19.8-19.376,6.766-19.525.77-46.143-15.1-66.281-20.5-26.126-77.86-69.52-148.634-47.657-30.223,9.336-54.958,27.734-71.522,53.068-13.722,21.024-21.7,47.137-21.874,71.488-.275,45.341,36.884,104.991,37.236,105.532a12.29,12.29,0,0,1-3.906,16.936l-.114.071a12.584,12.584,0,0,1-17.235-3.857c-1.677-2.728-41.356-66.33-41.036-118.732.445-56.8,34.961-124.588,111.154-148.125,35.218-10.879,72.229-9.051,107.058,5.229,27,11.136,51.979,29.57,68.5,50.619,21.1,26.868,28.53,62.038,18.926,89.487-6.4,18.3-19.659,30.926-37.275,35.441-45.914,11.679-63.9-17.726-77.018-39.177-13.47-21.991-20.921-32.3-44.2-25.11-12.784,3.949-20.659,10.277-23.971,19.368-4.507,12.428-.236,28.358,4.141,39.525l.136.349a100.947,100.947,0,0,0,25.613,37.253c18.012,16.634,51.451,40.347,94.07,38.06A12.309,12.309,0,0,1,435.585,501.6q0,.059.007.118a12.579,12.579,0,0,1-8.852,12.472Z" transform="translate(310.129 4090.296)"/><path class="d" d="M331.94,537.534a12.616,12.616,0,0,1-9.871-1.031c-38.557-21.846-65.625-51.228-85.116-92.41l-.078-.254c-12.284-27.458-19.679-69.409-3.367-104.866,12.042-26.162,34.646-44.552,67.071-54.568,38.35-11.847,74.059-3.125,103.366,25.1a153.169,153.169,0,0,1,31.985,45.3,12.516,12.516,0,1,1-23.032,9.8,128.26,128.26,0,0,0-26.965-37.761c-22.59-21.492-48.85-27.847-78.142-18.8-25.313,7.819-42.743,21.643-51.666,41.092-12.867,27.994-6.243,62.949,3.371,84.462,17.186,36.423,41.025,62.259,74.961,81.451a12.255,12.255,0,0,1,4.655,16.695l-.1.166A12.569,12.569,0,0,1,331.94,537.534Z" transform="translate(310.129 4090.296)"/><circle class="d" cx="15.949" cy="15.949" r="15.949" transform="translate(630.18 4472.819)"/></g></svg>