<svg xmlns="http://www.w3.org/2000/svg" width="67.436" height="31" viewBox="0 0 67.436 31"><defs><style>.a{fill:#e9c46a;opacity:0.8;}</style></defs><path class="a" d="M34.529,28.935c-7.618,0-14.09,2.215-18.317,5.687V41.08H52.848V34.622C48.621,31.15,42.148,28.935,34.529,28.935Zm33.636-3.314L34.44,10.08.729,25.621l5.619,2.572v3.955c-1.409.292-1.413,1.03-1.413,1.908a2.356,2.356,0,0,0,.5,1.489L3.506,39.671h6.876L8.472,35.542a2.268,2.268,0,0,0,.585-1.418c0-.876-1.3-1.687-1.3-1.978V28.853L14.8,32.018v-.28c4.227-3.676,11.655-6.01,19.725-6.01s15.5,2.333,19.73,6.01v.28Z" transform="translate(-0.729 -10.08)"/></svg>