<svg xmlns="http://www.w3.org/2000/svg" width="705.95" height="472.124" viewBox="0 0 705.95 472.124"><defs><style>.a{fill:#e0e0e0;}.b{fill:#f55f44;}.c{opacity:0.05;}.d{fill:#f5f5f5;}.e{fill:#d08770;}.f{opacity:0.15;}</style></defs><g transform="translate(10971.562 2196)"><ellipse class="a" cx="35.095" cy="5.264" rx="35.095" ry="5.264" transform="translate(-10971.562 -1943.814) rotate(-63.611)"/><rect class="b" width="21.057" height="70.189" transform="translate(-10760.602 -1854.714) rotate(39.547)"/><rect class="c" width="23.692" height="70.189" transform="translate(-10758.635 -1777.443) rotate(-166.769)"/><rect class="b" width="21.057" height="70.189" transform="translate(-10758.635 -1777.443) rotate(-166.769)"/><path class="d" d="M655.016,699.1c-8.584-4.117-444.844-220.718-438.556-217.6,24.214-36.957,31.2-62.875,31.2-62.875l438.556,217.6S670.811,663.259,655.016,699.1Z" transform="translate(-11183.308 -2422.981)"/><rect class="c" width="40.359" height="70.189" transform="translate(-10743.882 -1909.195) rotate(26.389)"/><rect class="b" width="36.849" height="70.189" transform="translate(-10742.31 -1908.415) rotate(26.389)"/><rect class="c" width="24.566" height="70.189" transform="translate(-10737.594 -1906.076) rotate(26.389)"/><rect class="b" width="21.057" height="70.189" transform="translate(-10736.022 -1905.296) rotate(26.389)"/><path class="e" d="M407.2,520.481l-24,36s8,37,185,36,191-36,191-36l-33-48-101-69Z" transform="translate(-11183.308 -2422.981)"/><path class="f" d="M407.2,520.481l-24,36s8,37,185,36,191-36,191-36l-33-48-101-69Z" transform="translate(-11183.308 -2422.981)"/><path class="e" d="M715.394,224l-315,139-384-139,352-160,172.79,79.67,6.19,2.86Z" transform="translate(-10981.005 -2260)"/><path class="f" d="M715.394,224l-315,139-384-139,352-160,172.79,79.67,6.19,2.86Z" transform="translate(-10981.005 -2260)"/><path class="d" d="M553.894,257.32l-6,.36-6.71-114.01,6.19,2.86Z" transform="translate(-10981.005 -2260)"/><path class="e" d="M411.2,386.481l-28,170s201-65,376,0l-26-180S498.2,347.481,411.2,386.481Z" transform="translate(-11183.308 -2422.981)"/><ellipse class="d" cx="29" cy="20" rx="29" ry="20" transform="translate(-10456.611 -2008)"/></g></svg>