<svg xmlns="http://www.w3.org/2000/svg" width="140.054" height="142.42" viewBox="0 0 140.054 142.42"><defs><style>.a{fill:none;stroke:#6c63ff;stroke-width:3px;}</style></defs><path in:draw={{duration}} class="a" d="M87.659,160.771c-15.21-8.62-25.887-20.209-33.576-36.453l-.031-.1c-4.847-10.832-7.76-27.378-1.329-41.368,4.752-10.319,13.67-17.572,26.459-21.523,15.126-4.673,29.213-1.231,40.775,9.9A60.453,60.453,0,0,1,132.573,89.1a4.937,4.937,0,0,1-9.086,3.867,50.558,50.558,0,0,0-10.639-14.894c-8.91-8.478-19.268-10.985-30.822-7.416-9.986,3.083-16.861,8.536-20.381,16.209-5.075,11.044-2.459,24.832,1.332,33.316,6.777,14.368,16.182,24.558,29.567,32.131a4.831,4.831,0,0,1,1.839,6.583c-.014.024-.028.045-.039.066a4.959,4.959,0,0,1-6.684,1.811ZM76.473,127.166l-.148-.242c-.49-.767-12.362-18.825-7.136-33.171,2.4-6.559,7.709-11.163,15.825-13.667,7.547-2.335,13.722-1.644,18.977,2.109,4.311,3.059,7.076,7.62,9.75,12.026,5.571,9.144,8.98,13.8,19.568,11.111a11.258,11.258,0,0,0,7.808-7.642c2.668-7.7.305-18.2-5.956-26.147-8.085-10.305-30.711-27.423-58.627-18.8A51.237,51.237,0,0,0,48.317,73.679a53.8,53.8,0,0,0-8.626,28.2c-.108,17.885,14.548,41.416,14.686,41.628a4.852,4.852,0,0,1-1.54,6.681.369.369,0,0,1-.046.028,4.962,4.962,0,0,1-6.8-1.519c-.663-1.076-16.313-26.165-16.189-46.834C29.983,79.451,43.6,52.711,73.653,43.43a61.887,61.887,0,0,1,42.231,2.064c10.645,4.391,20.5,11.661,27.017,19.966,8.321,10.6,11.254,24.472,7.465,35.3-2.525,7.219-7.753,12.2-14.7,13.982-18.11,4.606-25.206-6.993-30.379-15.453-5.315-8.675-8.251-12.744-17.438-9.906-5.043,1.557-8.147,4.054-9.455,7.638-1.78,4.9-.094,11.186,1.633,15.592.017.049.038.094.055.139a39.828,39.828,0,0,0,10.1,14.693c7.106,6.563,20.3,15.917,37.107,15.016A4.856,4.856,0,0,1,132.437,147c0,.017,0,.031,0,.045a5.013,5.013,0,0,1-4.7,5.148q-1.451.077-2.868.076C95.686,152.273,77.254,128.2,76.473,127.166Zm10.389-20.843a6.292,6.292,0,1,1,6.293,6.289A6.292,6.292,0,0,1,86.862,106.323ZM16.579,83.75a4.9,4.9,0,0,1-1.457-4.68C17.97,67.214,28.806,38.223,68.277,26.031c17.1-5.283,33.5-5.373,48.717-.271A79.1,79.1,0,0,1,141.8,39.641a4.856,4.856,0,0,1,.8,6.823c-.01.014-.021.024-.032.039a4.97,4.97,0,0,1-6.926.787c-7.2-5.678-29.064-22.92-64.5-11.974C36.549,46,27.151,71,24.713,81.228A4.961,4.961,0,0,1,19.9,85.046,4.892,4.892,0,0,1,16.579,83.75Z" transform="translate(-13.47 -20.479)"/></svg>