<svg xmlns="http://www.w3.org/2000/svg" width="74" height="122.037" viewBox="0 0 74 122.037">
  <defs>
    <style>
      .a {
        fill: #68d391;
      }

      .b {
        fill: #fff;
      }
    </style>
  </defs>
  <g transform="translate(824.88 -2165.5)">
    <path class="a" d="M591.12,350a17.52,17.52,0,0,1-17.5-17.5v-38a17.5,17.5,0,0,1,35,0v38a17.52,17.52,0,0,1-17.5,17.5Z"
      transform="translate(-1379 1888.5)" />
    <path class="a"
      d="M591.12,364.5a37.042,37.042,0,0,1-37-37,3,3,0,0,1,6,0,31,31,0,0,0,62,0,3,3,0,0,1,6,0,37.042,37.042,0,0,1-37,37Z"
      transform="translate(-1379 1888.5)" />
    <path class="a" d="M591.12,398.5a3,3,0,0,1-3-3v-33a3,3,0,0,1,6,0v33a3,3,0,0,1-3,3Z"
      transform="translate(-1379 1888.5)" />
    <circle class="b" cx="2" cy="2" r="2" transform="translate(-796.88 2175)" />
    <circle class="b" cx="2" cy="2" r="2" transform="translate(-796.88 2194)" />
    <circle class="b" cx="2" cy="2" r="2" transform="translate(-782.88 2182)" />
    <path class="a" d="M614.884,399.037H567.356a3,3,0,0,1,0-6h47.527a3,3,0,0,1,0,6Z"
      transform="translate(-1379 1888.5)" />
  </g>
</svg>