<svg xmlns="http://www.w3.org/2000/svg" width="152" height="152" viewBox="0 0 152 152"><defs><style>.a{opacity:0.03;}.b{fill:#e9c46a;fill-rule:evenodd;}</style></defs><g class="a"><path class="b" d="M152,150v2H0v-2H28v-8H8V122H0v-2H8V80H50v20H70v42H30v8h90v-8H80V100h20V80h42v40h8V30h-8V70H100V50H80V8h40V0h2V8h20V28h8V0h2Zm-2,0V122h-8v20H122v8ZM82,30V48h18V30Zm20,18h20V68h18V30H120V10H82V28h20Zm0,2V68h18V50Zm20-22h18V10H122ZM68,120V102H50v18ZM48,102H28V82H10v38H30v20H68V122H48Zm0-2V82H30v18ZM28,122H10v18H28Zm54,0v18h38V120h20V82H122v20H102v20Zm18-20H82v18h18Zm2-2h18V82H102Zm20,40V122h18v18ZM30,0H28V8H8V28H0v2H8V70H50V50H70V8H30ZM50,48H68V30H50ZM68,28H48V48H28V68H10V30H30V10H68ZM30,50H48V68H30ZM28,10H10V28H28Z"/></g></svg>