<svg xmlns="http://www.w3.org/2000/svg" width="648.39" height="650.7" viewBox="0 0 648.39 650.7"><defs><style>.a{fill:#3f3d56;}.b{fill:#35323e;}.c{fill:#f4a261;}.d,.h{opacity:0.03;}.e{fill:#464353;}.f{opacity:0.1;}.g{fill:#6c63ff;}.h{fill:#fff;}</style></defs><g transform="translate(15481.496 750.847)"><g transform="translate(-797 726)"><path class="a" d="M344.19,718.29a24.224,24.224,0,0,1,1.5,3.57q-12,4.53-24,9.5c-.17-.29-.34-.6-.5-.91A20.44,20.44,0,0,1,318.7,720c.21-4.69,2.29-8.73,6-10.68s8.21-1.41,12.2,1a20.64,20.64,0,0,1,7.29,7.97Z" transform="translate(-14951.227 -1620.017)"/><ellipse class="a" cx="13.02" cy="17.05" rx="13.02" ry="17.05" transform="translate(-14647.75 -923.073) rotate(-27.84)"/><ellipse class="a" cx="13.02" cy="17.05" rx="13.02" ry="17.05" transform="translate(-14657.476 -941.497) rotate(-27.84)"/><ellipse class="a" cx="13.02" cy="17.05" rx="13.02" ry="17.05" transform="translate(-14667.207 -959.92) rotate(-27.84)"/><ellipse class="a" cx="13.02" cy="17.05" rx="13.02" ry="17.05" transform="translate(-14676.942 -978.345) rotate(-27.84)"/><path class="a" d="M786.77,587.77a31.768,31.768,0,0,0-1.38,5.2q17.42,3.91,34.85,8.49c.18-.43.36-.89.53-1.35a28.54,28.54,0,0,0,1.39-14.87c-1.19-6.4-4.82-11.56-10.31-13.55s-11.56-.37-16.58,3.76A28.59,28.59,0,0,0,786.77,587.77Z" transform="translate(-14951.227 -1620.017)"/><ellipse class="a" cx="23.67" cy="18.08" rx="23.67" ry="18.08" transform="matrix(0.341, -0.94, 0.94, 0.341, -14162.667, -1037.209)"/><ellipse class="a" cx="23.67" cy="18.08" rx="23.67" ry="18.08" transform="matrix(0.34, -0.94, 0.94, 0.34, -14153.842, -1065.176)"/><ellipse class="a" cx="23.67" cy="18.08" rx="23.67" ry="18.08" transform="matrix(0.341, -0.94, 0.94, 0.341, -14142.915, -1091.599)"/><ellipse class="a" cx="23.67" cy="18.08" rx="23.67" ry="18.08" transform="matrix(0.341, -0.94, 0.94, 0.341, -14133.042, -1118.787)"/><ellipse class="a" cx="7.84" cy="10.26" rx="7.84" ry="10.26" transform="translate(-14684.496 -902.287)"/><ellipse class="a" cx="7.84" cy="10.26" rx="7.84" ry="10.26" transform="translate(-14684.496 -914.827)"/><ellipse class="a" cx="7.84" cy="10.26" rx="7.84" ry="10.26" transform="translate(-14684.496 -927.367)"/><ellipse class="a" cx="7.84" cy="10.26" rx="7.84" ry="10.26" transform="translate(-14684.496 -939.897)"/><ellipse class="a" cx="7.84" cy="10.26" rx="7.84" ry="10.26" transform="translate(-14684.496 -952.437)"/><ellipse class="a" cx="7.84" cy="10.26" rx="7.84" ry="10.26" transform="translate(-14684.496 -964.977)"/><ellipse class="a" cx="7.84" cy="10.26" rx="7.84" ry="10.26" transform="translate(-14684.496 -977.507)"/><rect class="b" width="483.61" height="104.35" rx="7.42" transform="translate(-14587.586 -1350.627)"/><path class="c" d="M404.57,143.17s6.87,186.83-5.31,208.7H811s-17.49-143.71,0-208.7Z" transform="translate(-14951.227 -1620.017)"/><path class="d" d="M404.57,143.17s6.87,186.83-5.31,208.7H811s-17.49-143.71,0-208.7Z" transform="translate(-14951.227 -1619.017)"/><rect class="b" width="301.79" height="37.49" transform="translate(-14504.486 -1276.107)"/><path class="e" d="M882.9,785.21H323.54a29.82,29.82,0,0,1-29.64-33.12L305.34,649q1.13-10.28,1.63-20.61l2.15-69.9q.74-23.69,3.2-47.26,1.28-12.22,3-24.39l14.71-102.48a54,54,0,0,1,53.4-46.2h22.34a52.5,52.5,0,0,1,31.41,10.57c23.14,17.27,88.88,29.73,166.38,29.73S746.81,366,770,348.69a52.5,52.5,0,0,1,31.41-10.57H837.6a32.35,32.35,0,0,1,31.86,26.74l19.75,112q3,17.08,5.09,34.3,3.48,28.63,4.37,57.51l2,64.95a365.386,365.386,0,0,0,3.51,40.47l10.61,74.31a32.21,32.21,0,0,1-31.89,36.81Z" transform="translate(-14951.227 -1620.017)"/><rect class="f" width="534.22" height="229.63" rx="19.96" transform="translate(-14614.446 -1094.117)"/><ellipse class="g" cx="15.31" cy="12.81" rx="15.31" ry="12.81" transform="translate(-14595.396 -1080.067)"/><ellipse class="f" cx="15.31" cy="12.81" rx="15.31" ry="12.81" transform="translate(-14595.396 -1080.067)"/><path class="c" d="M15.31,0c8.455,0,15.31,5.735,15.31,12.81S23.765,25.62,15.31,25.62,0,19.885,0,12.81,6.855,0,15.31,0Z" transform="translate(-14595.396 -1082.877)"/><ellipse class="b" cx="15.31" cy="12.81" rx="15.31" ry="12.81" transform="translate(-14577.276 -1035.387)"/><ellipse class="f" cx="15.31" cy="12.81" rx="15.31" ry="12.81" transform="translate(-14577.276 -1035.387)"/><ellipse class="b" cx="15.31" cy="12.81" rx="15.31" ry="12.81" transform="translate(-14577.276 -1038.197)"/><ellipse class="b" cx="15.31" cy="12.81" rx="15.31" ry="12.81" transform="translate(-14567.276 -990.707)"/><ellipse class="f" cx="15.31" cy="12.81" rx="15.31" ry="12.81" transform="translate(-14567.276 -990.707)"/><ellipse class="b" cx="15.31" cy="12.81" rx="15.31" ry="12.81" transform="translate(-14567.276 -993.517)"/><ellipse class="b" cx="15.31" cy="12.81" rx="15.31" ry="12.81" transform="translate(-14606.016 -985.397)"/><ellipse class="f" cx="15.31" cy="12.81" rx="15.31" ry="12.81" transform="translate(-14606.016 -985.397)"/><ellipse class="b" cx="15.31" cy="12.81" rx="15.31" ry="12.81" transform="translate(-14606.016 -988.207)"/><ellipse class="b" cx="15.31" cy="12.81" rx="15.31" ry="12.81" transform="translate(-14548.536 -946.037)"/><ellipse class="f" cx="15.31" cy="12.81" rx="15.31" ry="12.81" transform="translate(-14548.536 -946.037)"/><ellipse class="b" cx="15.31" cy="12.81" rx="15.31" ry="12.81" transform="translate(-14548.536 -948.847)"/><ellipse class="b" cx="15.31" cy="12.81" rx="15.31" ry="12.81" transform="translate(-14599.766 -944.467)"/><ellipse class="f" cx="15.31" cy="12.81" rx="15.31" ry="12.81" transform="translate(-14599.766 -944.467)"/><ellipse class="b" cx="15.31" cy="12.81" rx="15.31" ry="12.81" transform="translate(-14599.766 -947.287)"/><ellipse class="b" cx="15.31" cy="12.81" rx="15.31" ry="12.81" transform="translate(-14506.356 -946.037)"/><ellipse class="f" cx="15.31" cy="12.81" rx="15.31" ry="12.81" transform="translate(-14506.356 -946.037)"/><ellipse class="b" cx="15.31" cy="12.81" rx="15.31" ry="12.81" transform="translate(-14506.356 -948.847)"/><ellipse class="b" cx="15.31" cy="12.81" rx="15.31" ry="12.81" transform="translate(-14461.687 -946.037)"/><ellipse class="f" cx="15.31" cy="12.81" rx="15.31" ry="12.81" transform="translate(-14461.687 -946.037)"/><ellipse class="b" cx="15.31" cy="12.81" rx="15.31" ry="12.81" transform="translate(-14461.687 -948.847)"/><ellipse class="b" cx="15.31" cy="12.81" rx="15.31" ry="12.81" transform="translate(-14420.446 -946.037)"/><ellipse class="f" cx="15.31" cy="12.81" rx="15.31" ry="12.81" transform="translate(-14420.446 -946.037)"/><ellipse class="b" cx="15.31" cy="12.81" rx="15.31" ry="12.81" transform="translate(-14420.446 -948.847)"/><ellipse class="b" cx="15.31" cy="12.81" rx="15.31" ry="12.81" transform="translate(-14374.836 -946.037)"/><ellipse class="f" cx="15.31" cy="12.81" rx="15.31" ry="12.81" transform="translate(-14374.836 -946.037)"/><ellipse class="b" cx="15.31" cy="12.81" rx="15.31" ry="12.81" transform="translate(-14374.836 -948.847)"/><ellipse class="b" cx="15.31" cy="12.81" rx="15.31" ry="12.81" transform="translate(-14333.596 -946.037)"/><ellipse class="f" cx="15.31" cy="12.81" rx="15.31" ry="12.81" transform="translate(-14333.596 -946.037)"/><ellipse class="b" cx="15.31" cy="12.81" rx="15.31" ry="12.81" transform="translate(-14333.596 -948.847)"/><ellipse class="b" cx="15.31" cy="12.81" rx="15.31" ry="12.81" transform="translate(-14292.676 -946.037)"/><ellipse class="f" cx="15.31" cy="12.81" rx="15.31" ry="12.81" transform="translate(-14292.676 -946.037)"/><ellipse class="b" cx="15.31" cy="12.81" rx="15.31" ry="12.81" transform="translate(-14292.676 -948.847)"/><ellipse class="b" cx="15.31" cy="12.81" rx="15.31" ry="12.81" transform="translate(-14248.306 -946.037)"/><ellipse class="f" cx="15.31" cy="12.81" rx="15.31" ry="12.81" transform="translate(-14248.306 -946.037)"/><ellipse class="b" cx="15.31" cy="12.81" rx="15.31" ry="12.81" transform="translate(-14248.306 -948.847)"/><ellipse class="b" cx="15.31" cy="12.81" rx="15.31" ry="12.81" transform="translate(-14206.756 -946.037)"/><ellipse class="f" cx="15.31" cy="12.81" rx="15.31" ry="12.81" transform="translate(-14206.756 -946.037)"/><ellipse class="b" cx="15.31" cy="12.81" rx="15.31" ry="12.81" transform="translate(-14206.756 -948.847)"/><ellipse class="b" cx="15.31" cy="12.81" rx="15.31" ry="12.81" transform="translate(-14160.836 -946.037)"/><ellipse class="f" cx="15.31" cy="12.81" rx="15.31" ry="12.81" transform="translate(-14160.836 -946.037)"/><ellipse class="b" cx="15.31" cy="12.81" rx="15.31" ry="12.81" transform="translate(-14160.836 -948.847)"/><ellipse class="b" cx="15.31" cy="12.81" rx="15.31" ry="12.81" transform="translate(-14113.656 -946.037)"/><ellipse class="f" cx="15.31" cy="12.81" rx="15.31" ry="12.81" transform="translate(-14113.656 -946.037)"/><ellipse class="b" cx="15.31" cy="12.81" rx="15.31" ry="12.81" transform="translate(-14113.656 -948.847)"/><ellipse class="b" cx="15.31" cy="12.81" rx="15.31" ry="12.81" transform="translate(-14524.786 -990.707)"/><ellipse class="f" cx="15.31" cy="12.81" rx="15.31" ry="12.81" transform="translate(-14524.786 -990.707)"/><ellipse class="b" cx="15.31" cy="12.81" rx="15.31" ry="12.81" transform="translate(-14524.786 -993.517)"/><ellipse class="b" cx="15.31" cy="12.81" rx="15.31" ry="12.81" transform="translate(-14482.306 -990.707)"/><ellipse class="f" cx="15.31" cy="12.81" rx="15.31" ry="12.81" transform="translate(-14482.306 -990.707)"/><ellipse class="b" cx="15.31" cy="12.81" rx="15.31" ry="12.81" transform="translate(-14482.306 -993.517)"/><ellipse class="b" cx="15.31" cy="12.81" rx="15.31" ry="12.81" transform="translate(-14438.566 -990.707)"/><ellipse class="f" cx="15.31" cy="12.81" rx="15.31" ry="12.81" transform="translate(-14438.566 -990.707)"/><ellipse class="b" cx="15.31" cy="12.81" rx="15.31" ry="12.81" transform="translate(-14438.566 -993.517)"/><ellipse class="b" cx="15.31" cy="12.81" rx="15.31" ry="12.81" transform="translate(-14396.706 -990.707)"/><ellipse class="f" cx="15.31" cy="12.81" rx="15.31" ry="12.81" transform="translate(-14396.706 -990.707)"/><ellipse class="b" cx="15.31" cy="12.81" rx="15.31" ry="12.81" transform="translate(-14396.706 -993.517)"/><ellipse class="b" cx="15.31" cy="12.81" rx="15.31" ry="12.81" transform="translate(-14353.906 -990.707)"/><ellipse class="f" cx="15.31" cy="12.81" rx="15.31" ry="12.81" transform="translate(-14353.906 -990.707)"/><ellipse class="b" cx="15.31" cy="12.81" rx="15.31" ry="12.81" transform="translate(-14353.906 -993.517)"/><ellipse class="b" cx="15.31" cy="12.81" rx="15.31" ry="12.81" transform="translate(-14312.977 -990.707)"/><ellipse class="f" cx="15.31" cy="12.81" rx="15.31" ry="12.81" transform="translate(-14312.977 -990.707)"/><ellipse class="b" cx="15.31" cy="12.81" rx="15.31" ry="12.81" transform="translate(-14312.977 -993.517)"/><ellipse class="b" cx="15.31" cy="12.81" rx="15.31" ry="12.81" transform="translate(-14268.616 -990.707)"/><ellipse class="f" cx="15.31" cy="12.81" rx="15.31" ry="12.81" transform="translate(-14268.616 -990.707)"/><ellipse class="b" cx="15.31" cy="12.81" rx="15.31" ry="12.81" transform="translate(-14268.616 -993.517)"/><ellipse class="b" cx="15.31" cy="12.81" rx="15.31" ry="12.81" transform="translate(-14226.437 -990.707)"/><ellipse class="f" cx="15.31" cy="12.81" rx="15.31" ry="12.81" transform="translate(-14226.437 -990.707)"/><ellipse class="b" cx="15.31" cy="12.81" rx="15.31" ry="12.81" transform="translate(-14226.437 -993.517)"/><ellipse class="b" cx="15.31" cy="12.81" rx="15.31" ry="12.81" transform="translate(-14183.326 -990.707)"/><ellipse class="f" cx="15.31" cy="12.81" rx="15.31" ry="12.81" transform="translate(-14183.326 -990.707)"/><ellipse class="b" cx="15.31" cy="12.81" rx="15.31" ry="12.81" transform="translate(-14183.326 -993.517)"/><ellipse class="b" cx="15.31" cy="12.81" rx="15.31" ry="12.81" transform="translate(-14140.216 -990.707)"/><ellipse class="f" cx="15.31" cy="12.81" rx="15.31" ry="12.81" transform="translate(-14140.216 -990.707)"/><ellipse class="b" cx="15.31" cy="12.81" rx="15.31" ry="12.81" transform="translate(-14140.216 -993.517)"/><ellipse class="b" cx="15.31" cy="12.81" rx="15.31" ry="12.81" transform="translate(-14534.166 -1035.387)"/><ellipse class="f" cx="15.31" cy="12.81" rx="15.31" ry="12.81" transform="translate(-14534.166 -1035.387)"/><ellipse class="b" cx="15.31" cy="12.81" rx="15.31" ry="12.81" transform="translate(-14534.166 -1038.197)"/><ellipse class="b" cx="15.31" cy="12.81" rx="15.31" ry="12.81" transform="translate(-14491.046 -1035.387)"/><ellipse class="f" cx="15.31" cy="12.81" rx="15.31" ry="12.81" transform="translate(-14491.046 -1035.387)"/><ellipse class="b" cx="15.31" cy="12.81" rx="15.31" ry="12.81" transform="translate(-14491.046 -1038.197)"/><ellipse class="b" cx="15.31" cy="12.81" rx="15.31" ry="12.81" transform="translate(-14449.496 -1035.387)"/><ellipse class="f" cx="15.31" cy="12.81" rx="15.31" ry="12.81" transform="translate(-14449.496 -1035.387)"/><ellipse class="b" cx="15.31" cy="12.81" rx="15.31" ry="12.81" transform="translate(-14449.496 -1038.197)"/><ellipse class="b" cx="15.31" cy="12.81" rx="15.31" ry="12.81" transform="translate(-14407.946 -1035.387)"/><ellipse class="f" cx="15.31" cy="12.81" rx="15.31" ry="12.81" transform="translate(-14407.946 -1035.387)"/><ellipse class="b" cx="15.31" cy="12.81" rx="15.31" ry="12.81" transform="translate(-14407.946 -1038.197)"/><ellipse class="b" cx="15.31" cy="12.81" rx="15.31" ry="12.81" transform="translate(-14366.086 -1035.387)"/><ellipse class="f" cx="15.31" cy="12.81" rx="15.31" ry="12.81" transform="translate(-14366.086 -1035.387)"/><ellipse class="b" cx="15.31" cy="12.81" rx="15.31" ry="12.81" transform="translate(-14366.086 -1038.197)"/><ellipse class="b" cx="15.31" cy="12.81" rx="15.31" ry="12.81" transform="translate(-14324.846 -1035.387)"/><ellipse class="f" cx="15.31" cy="12.81" rx="15.31" ry="12.81" transform="translate(-14324.846 -1035.387)"/><ellipse class="b" cx="15.31" cy="12.81" rx="15.31" ry="12.81" transform="translate(-14324.846 -1038.197)"/><ellipse class="b" cx="15.31" cy="12.81" rx="15.31" ry="12.81" transform="translate(-14281.116 -1035.387)"/><ellipse class="f" cx="15.31" cy="12.81" rx="15.31" ry="12.81" transform="translate(-14281.116 -1035.387)"/><ellipse class="b" cx="15.31" cy="12.81" rx="15.31" ry="12.81" transform="translate(-14281.116 -1038.197)"/><ellipse class="b" cx="15.31" cy="12.81" rx="15.31" ry="12.81" transform="translate(-14239.876 -1035.387)"/><ellipse class="f" cx="15.31" cy="12.81" rx="15.31" ry="12.81" transform="translate(-14239.876 -1035.387)"/><ellipse class="b" cx="15.31" cy="12.81" rx="15.31" ry="12.81" transform="translate(-14239.876 -1038.197)"/><ellipse class="b" cx="15.31" cy="12.81" rx="15.31" ry="12.81" transform="translate(-14195.826 -1035.387)"/><ellipse class="f" cx="15.31" cy="12.81" rx="15.31" ry="12.81" transform="translate(-14195.826 -1035.387)"/><ellipse class="b" cx="15.31" cy="12.81" rx="15.31" ry="12.81" transform="translate(-14195.826 -1038.197)"/><ellipse class="b" cx="15.31" cy="12.81" rx="15.31" ry="12.81" transform="translate(-14152.716 -1035.387)"/><ellipse class="f" cx="15.31" cy="12.81" rx="15.31" ry="12.81" transform="translate(-14152.716 -1035.387)"/><ellipse class="b" cx="15.31" cy="12.81" rx="15.31" ry="12.81" transform="translate(-14152.716 -1038.197)"/><ellipse class="b" cx="15.31" cy="12.81" rx="15.31" ry="12.81" transform="translate(-14555.406 -1080.067)"/><ellipse class="f" cx="15.31" cy="12.81" rx="15.31" ry="12.81" transform="translate(-14555.406 -1080.067)"/><ellipse class="b" cx="15.31" cy="12.81" rx="15.31" ry="12.81" transform="translate(-14555.406 -1082.877)"/><ellipse class="b" cx="15.31" cy="12.81" rx="15.31" ry="12.81" transform="translate(-14512.916 -1080.067)"/><ellipse class="f" cx="15.31" cy="12.81" rx="15.31" ry="12.81" transform="translate(-14512.916 -1080.067)"/><ellipse class="b" cx="15.31" cy="12.81" rx="15.31" ry="12.81" transform="translate(-14512.916 -1082.877)"/><ellipse class="b" cx="15.31" cy="12.81" rx="15.31" ry="12.81" transform="translate(-14471.996 -1080.067)"/><ellipse class="f" cx="15.31" cy="12.81" rx="15.31" ry="12.81" transform="translate(-14471.996 -1080.067)"/><ellipse class="b" cx="15.31" cy="12.81" rx="15.31" ry="12.81" transform="translate(-14471.996 -1082.877)"/><ellipse class="b" cx="15.31" cy="12.81" rx="15.31" ry="12.81" transform="translate(-14429.816 -1080.067)"/><ellipse class="f" cx="15.31" cy="12.81" rx="15.31" ry="12.81" transform="translate(-14429.816 -1080.067)"/><ellipse class="b" cx="15.31" cy="12.81" rx="15.31" ry="12.81" transform="translate(-14429.816 -1082.877)"/><ellipse class="b" cx="15.31" cy="12.81" rx="15.31" ry="12.81" transform="translate(-14388.266 -1080.067)"/><ellipse class="f" cx="15.31" cy="12.81" rx="15.31" ry="12.81" transform="translate(-14388.266 -1080.067)"/><ellipse class="b" cx="15.31" cy="12.81" rx="15.31" ry="12.81" transform="translate(-14388.266 -1082.877)"/><ellipse class="b" cx="15.31" cy="12.81" rx="15.31" ry="12.81" transform="translate(-14345.776 -1080.067)"/><ellipse class="f" cx="15.31" cy="12.81" rx="15.31" ry="12.81" transform="translate(-14345.776 -1080.067)"/><ellipse class="b" cx="15.31" cy="12.81" rx="15.31" ry="12.81" transform="translate(-14345.776 -1082.877)"/><ellipse class="b" cx="15.31" cy="12.81" rx="15.31" ry="12.81" transform="translate(-14304.227 -1080.067)"/><ellipse class="f" cx="15.31" cy="12.81" rx="15.31" ry="12.81" transform="translate(-14304.227 -1080.067)"/><ellipse class="b" cx="15.31" cy="12.81" rx="15.31" ry="12.81" transform="translate(-14304.227 -1082.877)"/><ellipse class="b" cx="15.31" cy="12.81" rx="15.31" ry="12.81" transform="translate(-14262.056 -1080.067)"/><ellipse class="f" cx="15.31" cy="12.81" rx="15.31" ry="12.81" transform="translate(-14262.056 -1080.067)"/><ellipse class="b" cx="15.31" cy="12.81" rx="15.31" ry="12.81" transform="translate(-14262.056 -1082.877)"/><ellipse class="b" cx="15.31" cy="12.81" rx="15.31" ry="12.81" transform="translate(-14218.626 -1080.067)"/><ellipse class="f" cx="15.31" cy="12.81" rx="15.31" ry="12.81" transform="translate(-14218.626 -1080.067)"/><ellipse class="b" cx="15.31" cy="12.81" rx="15.31" ry="12.81" transform="translate(-14218.626 -1082.877)"/><ellipse class="b" cx="15.31" cy="12.81" rx="15.31" ry="12.81" transform="translate(-14176.146 -1080.067)"/><ellipse class="f" cx="15.31" cy="12.81" rx="15.31" ry="12.81" transform="translate(-14176.146 -1080.067)"/><ellipse class="b" cx="15.31" cy="12.81" rx="15.31" ry="12.81" transform="translate(-14176.146 -1082.877)"/><ellipse class="g" cx="15.31" cy="12.81" rx="15.31" ry="12.81" transform="translate(-14134.596 -1080.067)"/><ellipse class="f" cx="15.31" cy="12.81" rx="15.31" ry="12.81" transform="translate(-14134.596 -1080.067)"/><ellipse class="c" cx="15.31" cy="12.81" rx="15.31" ry="12.81" transform="translate(-14134.596 -1082.877)"/><rect class="b" width="467.68" height="24.68" rx="9.07" transform="translate(-14580.086 -903.227)"/><rect class="f" width="467.68" height="24.68" rx="9.07" transform="translate(-14580.086 -903.227)"/><rect class="b" width="467.68" height="24.68" rx="9.07" transform="translate(-14580.086 -905.107)"/><path class="f" d="M775.09,422.48c0,26.4-83.56,54.67-177.77,54.67s-164-30.46-164-56.86,69.81-38.74,164-38.74S775.09,396.08,775.09,422.48Z" transform="translate(-14951.227 -1620.017)"/><ellipse class="e" cx="10.31" cy="25.46" rx="10.31" ry="25.46" transform="translate(-14103.666 -1325.937)"/><ellipse class="e" cx="10.31" cy="25.46" rx="10.31" ry="25.46" transform="translate(-14608.516 -1325.937)"/><rect class="f" width="497.35" height="7.5" transform="translate(-14590.706 -1306.567)"/><rect class="e" width="497.35" height="7.5" transform="translate(-14590.706 -1307.817)"/><path class="e" d="M617,321.57c-4.07-1.25-11.56,23.43-11.56,23.43h22.8S621.07,322.82,617,321.57Zm-.32,3.12a2.185,2.185,0,1,0,.01,0Zm.26,7.06c2.67.65,7.4,12.31,7.4,12.31h-15s4.94-12.97,7.66-12.31Z" transform="translate(-14951.227 -1620.017)"/><path class="h" d="M894.3,511.19h-582q1.28-12.22,3-24.39l14.71-102.48a54,54,0,0,1,53.4-46.2h22.34a52.5,52.5,0,0,1,31.41,10.57c23.14,17.27,88.88,29.73,166.38,29.73S746.81,366,770,348.69a52.5,52.5,0,0,1,31.41-10.57H837.6a32.35,32.35,0,0,1,31.86,26.74l19.75,112Q892.21,494,894.3,511.19Z" transform="translate(-14951.227 -1620.017)"/><path class="f" d="M581.48,573.56l-4.4,1.57-1.6-2.66v-.23a7.7,7.7,0,0,1,5.47-1.08Z" transform="translate(-14951.227 -1620.017)"/><path class="f" d="M537.93,771.44a13.846,13.846,0,0,0-1.23,3.44,74.028,74.028,0,0,1-7.51-.58c.14-1.75.2-3.37.2-3.37S540.41,766.79,537.93,771.44Z" transform="translate(-14951.227 -1620.017)"/><path class="f" d="M559.59,776s0,1.75-.06,3.8c-2.92.74-5.92-.75-7.38-1.65.23-1.65.37-3,.37-3Z" transform="translate(-14951.227 -1620.017)"/><path class="f" d="M578,658.33c-1.35.69-2.25,1.17-2.25,1.17s-19,9-24.46,8.5c-4.19-.4-14.88-.18-19.53-.06a36.6,36.6,0,0,1,2.52-4.45s40.28-11.89,42-10.7C576.67,653.1,577.33,655.22,578,658.33Z" transform="translate(-14951.227 -1620.017)"/><path class="f" d="M529.41,677.54a10.83,10.83,0,0,1-7.66-.29,24.49,24.49,0,0,1,1.09-2.54l4.62-2.81S528.4,674.31,529.41,677.54Z" transform="translate(-14951.227 -1620.017)"/><path class="f" d="M570.62,625.09s-2.21,19-8.67,22.6C562,647.69,576.4,643.61,570.62,625.09Z" transform="translate(-14951.227 -1620.017)"/><path class="f" d="M538.16,626.79s8,3.91,6.12,6.62S538.16,626.79,538.16,626.79Z" transform="translate(-14951.227 -1620.017)"/><path class="f" d="M538.16,634.6s5.1,5.27,4.08,7.14S538.16,634.6,538.16,634.6Z" transform="translate(-14951.227 -1620.017)"/><path class="f" d="M579.29,590.93s2,3.4,2.18,5.61S579.29,590.93,579.29,590.93Z" transform="translate(-14951.227 -1620.017)"/><path class="f" d="M579.29,586.34s1-.85,3.56,0S579.29,586.34,579.29,586.34Z" transform="translate(-14951.227 -1620.017)"/><path class="f" d="M569.47,685.67a23.57,23.57,0,0,1-12.42-1.59l-2.15,5.48-.23-2.54c.35-2.13,1-4.41,2.38-5A20.57,20.57,0,0,0,569.47,685.67Z" transform="translate(-14951.227 -1620.017)"/><path class="f" d="M534.62,692.81S545.07,695,548,694.59Z" transform="translate(-14951.227 -1620.017)"/><path class="f" d="M535.7,695.55s4.46-.19,6.69.7Z" transform="translate(-14951.227 -1620.017)"/><path class="f" d="M536.21,697.39a39,39,0,0,0,6.18.83Z" transform="translate(-14951.227 -1620.017)"/><path class="f" d="M536,720.78c.2-.13,8.93-2.16,10-.7Z" transform="translate(-14951.227 -1620.017)"/><path class="f" d="M536,723.46s7.59-.89,7.78,0S536,723.46,536,723.46Z" transform="translate(-14951.227 -1620.017)"/><path class="f" d="M536,725.88s8.1-1.66,9-1.27S536,725.88,536,725.88Z" transform="translate(-14951.227 -1620.017)"/><path class="f" d="M559.09,793.87s-9.37-8.85-8.42-9.55a4.429,4.429,0,0,0,.75-2c1.8-.32,4.88.44,7.46,7.63C558.94,792,559.09,793.87,559.09,793.87Z" transform="translate(-14951.227 -1620.017)"/><path class="f" d="M526.12,641s3-1.28,3.72,0S526.12,641,526.12,641Z" transform="translate(-14951.227 -1620.017)"/><path class="f" d="M527.17,643.16s3-1.28,3.72,0S527.17,643.16,527.17,643.16Z" transform="translate(-14951.227 -1620.017)"/><path d="M384.86,144.72a8.35,8.35,0,0,1,.17,2.93,7.77,7.77,0,0,1-.17-2.93Z" transform="translate(-14951.227 -1620.017)"/><path class="f" d="M368.25,295.6a34.678,34.678,0,0,0,7.44-1.78s1.87-.41,4.65-1.34c-.08-1-.14-2.06-.15-3.31a68,68,0,0,0-1.39-10.66l-10.29,1.87-.27,11.49a7.7,7.7,0,0,0,.01,3.73Z" transform="translate(-14951.227 -1620.017)"/></g></g></svg>