<svg xmlns="http://www.w3.org/2000/svg" xmlns:xlink="http://www.w3.org/1999/xlink" width="1919.8" height="184.8" viewBox="0 0 1919.8 184.8"><defs><style>.a{opacity:0.2;fill:url(#a);}</style><linearGradient id="a" x1="0.5" x2="0.5" y2="1" gradientUnits="objectBoundingBox"><stop offset="0" stop-color="#6c63ff"/><stop offset="1" stop-color="#363280"/></linearGradient></defs><path class="a" d="M0,41.067,22.8,58.2c22.931,16.876,69.193,51.526,114.521,65,45.462,13.475,90.657,7.058,137.319,3.4,45.329-3.4,90.657-3.4,137.319-3.4,45.2,0,90.657,0,135.986,6.866,46.262,6.609,91.99,20.726,137.319,20.533,46.129.192,91.99-13.924,137.319-34.265C868.443,95.608,914.571,68.658,959.9,65c45.729-3.4,91.99,17.132,137.319,10.267,45.462-6.609,90.657-41.259,137.319-54.734,45.329-13.475,90.657-7.058,137.319,10.267,45.2,17.325,90.657,44.275,135.986,47.932,46.262,3.4,91.991-17.132,137.319-20.533,46.129-3.658,91.99,10.459,137.319,3.4,45.862-7.058,91.99-34.008,114.655-47.932L1919.8,0V184.8H0Z" transform="translate(0)"/></svg>