<svg xmlns="http://www.w3.org/2000/svg" xmlns:xlink="http://www.w3.org/1999/xlink" width="783" height="277.3"
  viewBox="0 0 783 277.3">
  <defs>
    <style>
      .a {
        opacity: 0.2;
        fill: url(#a);
      }
    </style>
    <linearGradient id="a" x1="0.5" x2="0.5" y2="1" gradientUnits="objectBoundingBox">
      <stop offset="0" stop-color="#e9c46a" />
      <stop offset="1" stop-color="#e9c47a" />
    </linearGradient>
  </defs>
  <path class="a"
    d="M751,384.3H.5V223.785L10.4,213.6c10.5-10.3,31.6-32.3,52.6-32,20.5-.3,41,21.7,62,32,21.1,10.7,42,10.7,63,0,20.7-10.3,42-32.3,62-10.6,21.3,21.3,42,85.3,63,101.3,20.9,16,42-16,63-53.3,20.5-37.7,41-79.7,62-85.4,21.1-5.3,42,26.7,63,26.7,20.7,0,42-32,62-53.3,21.3-21.7,42-31.7,63-32,21,.3,42,10.3,63,42.6,20.6,31.7,41,85.7,62,101.4,10.912,8.39,21.719,6.632,32.5-1.372V384.3Z"
    transform="translate(-0.5 -107)" />
</svg>