<svg xmlns="http://www.w3.org/2000/svg" width="502.667" height="359.333" viewBox="0 0 502.667 359.333">
  <defs>
    <style>
      .a,
      .h {
        opacity: 0.05;
      }

      .b,
      .l {
        fill: #68d391;
      }

      .b,
      .c,
      .e,
      .k {
        opacity: 0.1;
      }

      .c {
        fill: gold;
      }

      .d {
        fill: #68d391;
      }

      .f {
        fill: #fed253;
      }

      .g {
        fill: #ffa2a2;
      }

      .i {
        fill: #68d391;
      }

      .j {
        fill: #896363;
      }
    </style>
  </defs>
  <g class="a" transform="translate(0)">
    <path class="b"
      d="M72.384,384.835c12.45,25.133,37.745,41.939,63.949,53.023a240.114,240.114,0,0,0,65.838,17.187q6.516.757,13.074,1.174a259.211,259.211,0,0,0,33.549-.037q10.078-.656,20.087-2.1a257.625,257.625,0,0,0,67.16-19.131q9.254-4.077,18.132-8.9a232.544,232.544,0,0,0,28.341-18.131q2.981-2.229,5.888-4.553l.8-.637c1.523-1.229,3.033-2.485,4.566-3.705a66.361,66.361,0,0,1,8.091-5.677c.192-.11.384-.22.581-.326.525-.3,1.059-.578,1.6-.844a37.131,37.131,0,0,1,3.441-1.486,45.98,45.98,0,0,1,17.091-2.628c.975,0,1.95.064,2.93.128h0c1.369.092,2.742.229,4.111.4l.506.069a94.973,94.973,0,0,1,12.905,2.71c6.535,1.834,12.952,4.127,19.411,6.2h0c2.742.885,5.489,1.729,8.26,2.485l.609.165a92.164,92.164,0,0,0,12.005,2.458,68.322,68.322,0,0,0,27.474-2.164l.309-.087.572-.165.783-.238q1.969-.605,3.9-1.325l.783-.293q1.875-.706,3.67-1.518l.783-.348q1.875-.853,3.67-1.8c.431-.22.858-.459,1.28-.683q1.913-1.046,3.75-2.192,1.95-1.215,3.816-2.536.863-.605,1.706-1.243a75.093,75.093,0,0,0,9.08-8.011c.155-.151.3-.307.445-.459.745-.789,1.477-1.591,2.184-2.412.263-.3.525-.605.783-.917q1.261-1.5,2.433-3.077c.117-.151.23-.307.342-.459a65.892,65.892,0,0,0,7.908-13.986c.066-.151.127-.307.183-.459q.938-2.362,1.711-4.8c.211-.679.413-1.376.591-2.054.061-.2.117-.408.169-.61,2.588-9.964,2.883-20.323,2.883-30.622v-3.6c-.075-16.659-.338-33.6-2.85-50.033a2.047,2.047,0,0,0-.052-.339,153.261,153.261,0,0,0-3.427-16.425,119.356,119.356,0,0,0-5.77-16.646c-5.78-13.3-14.185-25.4-23.518-36.616a209.037,209.037,0,0,0-38.5-36.226q-3.094-2.215-6.272-4.3l-.98-.628c-.342-.225-.684-.459-1.027-.656h0c-.7-.459-1.406-.89-2.119-1.325l-.8-.486-1.519-.917-.469-.261-.811-.459-.8-.459q-1.406-.812-2.845-1.587-6.145-3.352-12.582-6.126-1.9-.821-3.82-1.582a136.872,136.872,0,0,0-17.883-5.737q-3.375-.835-6.792-1.467-4.031-.761-8.1-1.261-6.482-.8-13.022-.949c-30.62-.729-61.549,9.02-85.545,27.706-9.563,7.447-18.155,16.265-28.895,21.974-9.375,4.971-20.349,7.03-30.39,3.118-8.3-3.233-13.7-4.838-23.016-4.347a196.643,196.643,0,0,0-56.4,11.537c-.731.261-1.463.532-2.189.8-47.209,17.677-87.8,52.78-108.885,97.888q-.834,1.788-1.627,3.6C63.042,323.146,58.5,356.827,72.384,384.835Z"
      transform="translate(-63.87 -97.41)" />
    <path class="b"
      d="M63.84,315.824v182.24l.625.173a92.707,92.707,0,0,0,12.309,2.576,68.587,68.587,0,0,0,28.17-2.269l.317-.091.586-.173.8-.25q2.019-.635,4-1.389l.8-.308q1.923-.74,3.763-1.591l.8-.365q1.923-.894,3.763-1.889c.442-.231.88-.481,1.312-.716q1.961-1.1,3.845-2.3,2-1.274,3.912-2.658.884-.634,1.75-1.3a77.552,77.552,0,0,0,9.31-8.4c.159-.159.308-.322.457-.481.764-.827,1.514-1.668,2.24-2.528.269-.317.538-.634.8-.961q1.293-1.577,2.495-3.225c.12-.159.236-.322.351-.481a69.494,69.494,0,0,0,8.108-14.66c.067-.159.13-.322.187-.481q.961-2.475,1.754-5.032c.216-.711.423-1.442.606-2.153.062-.212.12-.428.173-.639,2.653-10.444,2.956-21.3,2.956-32.1v-3.773c-.077-17.462-.346-35.221-2.922-52.443a2.188,2.188,0,0,0-.053-.356,163.785,163.785,0,0,0-3.514-17.217H104.473V315.824H94.688V295.93H73.626v19.894Z"
      transform="translate(342.622 -198.135)" />
    <path class="c"
      d="M411.878,464.994c12.766,26.344,38.7,43.959,65.569,55.577a241.921,241.921,0,0,0,67.506,18.014q6.681.793,13.405,1.231a260.021,260.021,0,0,0,34.4-.038q10.334-.687,20.6-2.2a259.758,259.758,0,0,0,68.861-20.052q9.488-4.273,18.591-9.329a237.847,237.847,0,0,0,29.06-19q3.057-2.336,6.037-4.773l.817-.668c1.562-1.288,3.11-2.605,4.681-3.884a68.059,68.059,0,0,1,8.3-5.95c.2-.115.394-.231.6-.341.538-.312,1.086-.606,1.644-.884a37.636,37.636,0,0,1,3.528-1.557V396.585h-89.2v16.6H627.114v-121.4H581.035v48.545H558.243V311.583H539.412v-30.7H530.76V263c-.75.274-1.5.558-2.245.841V280.88h-8.421V311.6H501.278v28.742H473.53v109.5h-44.1V370.212H415.214C402.3,400.333,397.647,435.637,411.878,464.994Z"
      transform="translate(-403.148 -181.033)" />
    <rect class="b" width="20.595" height="20.595" transform="translate(184.72 138.271)" />
    <rect class="b" width="20.595" height="20.595" transform="translate(184.72 179.078)" />
    <rect class="b" width="20.595" height="20.595" transform="translate(184.72 219.889)" />
    <rect class="b" width="20.595" height="20.595" transform="translate(184.72 260.701)" />
    <rect class="b" width="20.595" height="20.595" transform="translate(184.72 299.789)" />
    <path class="b" d="M698.84,805v16.265q10.334-.687,20.6-2.2V805Z" transform="translate(-514.12 -462.525)" />
    <rect class="b" width="72.091" height="9.329" transform="translate(265.578 246.781)" />
    <rect class="b" width="72.091" height="9.329" transform="translate(265.578 273.903)" />
    <path class="b" d="M432.43,714.21v9.324H485.7q3.057-2.336,6.037-4.773l.817-.668c1.562-1.288,3.11-2.605,4.681-3.884Z"
      transform="translate(-166.725 -415.373)" />
    <path class="b" d="M516.89,773.15v9.329h5.623Q532,778.206,541.1,773.15Z" transform="translate(-250.546 -445.984)" />
    <rect class="b" width="13.405" height="13.405" transform="translate(138.198 191.755)" />
    <rect class="b" width="13.405" height="13.405" transform="translate(419.367 131.983)" />
    <rect class="b" width="13.405" height="13.405" transform="translate(419.367 161.782)" />
    <rect class="b" width="13.405" height="13.405" transform="translate(419.367 191.576)" />
    <rect class="b" width="13.405" height="13.405" transform="translate(419.367 221.374)" />
    <rect class="b" width="13.405" height="13.405" transform="translate(419.367 251.173)" />
    <rect class="b" width="13.405" height="13.405" transform="translate(419.367 280.967)" />
    <rect class="b" width="13.405" height="13.405" transform="translate(88.313 191.755)" />
    <rect class="b" width="13.405" height="13.405" transform="translate(138.198 223.393)" />
    <rect class="b" width="13.405" height="13.405" transform="translate(88.313 223.393)" />
    <rect class="b" width="13.405" height="13.405" transform="translate(138.198 255.035)" />
    <rect class="b" width="13.405" height="13.405" transform="translate(88.313 255.035)" />
    <rect class="b" width="13.405" height="13.405" transform="translate(138.198 286.678)" />
    <rect class="b" width="13.405" height="13.405" transform="translate(88.313 286.678)" />
    <rect class="b" width="13.405" height="13.405" transform="translate(138.198 317.068)" />
    <rect class="b" width="13.405" height="13.405" transform="translate(88.313 317.068)" />
    <path class="b" d="M762.835,769.657V761.01H749.43v7.416Z" transform="translate(-611.232 -410.874)" />
    <path class="b"
      d="M121.2,424.68v7.69H69.93v-7.69Zm-4.566,7.21H120.4v-6.729h-3.763Zm-4.566,0h3.763v-6.729h-3.763Zm-4.566,0h3.763v-6.729H107.5Zm-4.566,0H106.7v-6.729h-3.763Zm-4.566,0h3.763v-6.729H98.37Zm-4.566,0h3.763v-6.729H93.8Zm-4.566,0H93v-6.729H89.237Zm-4.566,0h3.763v-6.729H84.671Zm-4.566,0h3.763v-6.729H80.105Zm-4.566,0H79.3v-6.729H75.539Zm-4.806,0h4v-6.729h-4Z"
      transform="translate(378.54 -256.83)" />
    <path class="b"
      d="M121.2,471.14v7.666H69.93V471.14Zm-4.566,7.186H120.4v-6.7h-3.763Zm-4.566,0h3.763v-6.7h-3.763Zm-4.566,0h3.763v-6.7H107.5Zm-4.566,0H106.7v-6.7h-3.763Zm-4.566,0h3.763v-6.7H98.37Zm-4.566,0h3.763v-6.7H93.8Zm-4.566,0H93v-6.7H89.237Zm-4.566,0h3.763v-6.7H84.671Zm-4.566,0h3.763v-6.7H80.105Zm-4.566,0H79.3v-6.7H75.539Zm-4.806,0h4v-6.7h-4Z"
      transform="translate(378.54 -281.91)" />
    <path class="b"
      d="M121.2,517.59v7.666H69.93V517.59Zm-4.566,7.186H120.4v-6.7h-3.763Zm-4.566,0h3.763v-6.7h-3.763Zm-4.566,0h3.763v-6.7H107.5Zm-4.566,0H106.7v-6.7h-3.763Zm-4.566,0h3.763v-6.7H98.37Zm-4.566,0h3.763v-6.7H93.8Zm-4.566,0H93v-6.7H89.237Zm-4.566,0h3.763v-6.7H84.671Zm-4.566,0h3.763v-6.7H80.105Zm-4.566,0H79.3v-6.7H75.539Zm-4.806,0h4v-6.7h-4Z"
      transform="translate(378.54 -306.984)" />
    <path class="b"
      d="M121.2,564v7.69H69.93V564Zm-4.566,7.21H120.4v-6.729h-3.763Zm-4.566,0h3.763v-6.729h-3.763Zm-4.566,0h3.763v-6.729H107.5Zm-4.566,0H106.7v-6.729h-3.763Zm-4.566,0h3.763v-6.729H98.37Zm-4.566,0h3.763v-6.729H93.8Zm-4.566,0H93v-6.729H89.237Zm-4.566,0h3.763v-6.729H84.671Zm-4.566,0h3.763v-6.729H80.105Zm-4.566,0H79.3v-6.729H75.539Zm-4.806,0h4v-6.729h-4Z"
      transform="translate(378.54 -332.038)" />
    <path class="b"
      d="M121.432,610.49c-.183.721-.389,1.442-.606,2.153v-1.673h-3.763V617.7h2.009c-.058.159-.12.322-.187.481H70.34v-7.69ZM112.5,617.7h3.763v-6.729H112.5Zm-4.566,0h3.763v-6.729h-3.763Zm-4.566,0h3.763v-6.729h-3.763Zm-4.566,0h3.763v-6.729H98.8Zm-4.566,0H98v-6.729H94.233Zm-4.566,0H93.43v-6.729H89.667Zm-4.566,0h3.763v-6.729H85.1Zm-4.566,0H84.3v-6.729H80.534Zm-4.566,0h3.763v-6.729H75.968Zm-4.806,0h4v-6.729h-4Z"
      transform="translate(378.111 -357.134)" />
    <path class="b"
      d="M132.927,656.94c-.115.159-.231.322-.351.481h-2.495v3.225c-.264.322-.534.639-.8.961v-4.182h-3.763v6.729h1.524c-.149.159-.3.322-.457.481H92.51v-7.69Zm-11.978,7.21h3.763v-6.729H120.95Zm-4.566,0h3.763v-6.729h-3.763Zm-4.566,0h3.763v-6.729h-3.763Zm-4.566,0h3.763v-6.729h-3.763Zm-4.566,0h3.763v-6.729h-3.763Zm-4.566,0h3.763v-6.729H98.119Zm-4.806,0h4v-6.729h-4Z"
      transform="translate(355.96 -382.209)" />
    <path class="b"
      d="M160.121,703.39c-.433.245-.87.481-1.312.716v-.236h-3.763V706l-.8.365v-2.49h-3.763v4.081l-.8.308v-4.388h-4v5.768l-.8.25v-6.5Z"
      transform="translate(303.6 -409.753)" />
    <path class="b"
      d="M452.787,286.154s11.458-.692,10.093,7.335a1.961,1.961,0,0,1-1.019,2.067s0-.6-1.173-.394a5.358,5.358,0,0,1-1.245.058,2.591,2.591,0,0,1-1.524-.625h0s-3.22-1.331-4.475-6.594c0,0-.923-1.149-.889-1.442l1.923.827a3.459,3.459,0,0,0-.144,2.552s.062-2.5.437-2.442c.072,0,1,.481,1,.481s-1.139,2.432-.279,4.2c0,0-.327-2.99.63-4.018l1.394.8s-1.331,2.509-.428,4.556c0,0-.236-3.139.711-4.359l1.235.961s-1.25,2.47-.481,4.172c0,0,.1-3.658.755-3.936a7.411,7.411,0,0,1,1.245,1.346s-.855,1.793-.327,2.74c0,0,.327-2.432.6-2.446a8.1,8.1,0,0,1,1.182,2.72,5.854,5.854,0,0,0-.923-2.884,3.23,3.23,0,0,1,1.644.851s-.168-1.139-1.923-1.24a7.5,7.5,0,0,0-1.13-1.3,7.082,7.082,0,0,1,2.788.322s-.928-1.077-3.1-.586l-1.216-.995a10.018,10.018,0,0,1,3.249.034s-1.11-.961-3.576-.26l-1.327-.793a12.1,12.1,0,0,1,3.1-.269,4.762,4.762,0,0,0-3.494.058l-.961-.428s1.442-.279,1.841-.322.442-.159.442-.159a4.941,4.941,0,0,0-2.677.3A12.1,12.1,0,0,1,452.787,286.154Z"
      transform="translate(-142.446 -182.064)" />
    <path class="b"
      d="M416.1,367.336s3.917,10.786-4.167,11.771a1.956,1.956,0,0,1-2.264-.389s.562-.187.043-1.24a5.476,5.476,0,0,1-.413-1.173,2.6,2.6,0,0,1,.173-1.639h0s.36-3.465,5.052-6.162c0,0,.836-1.216,1.13-1.264l-.24,2.091a3.464,3.464,0,0,0-2.49.586s2.4-.649,2.466-.274c0,.072-.178,1.1-.178,1.1s-2.653-.4-4.1.923c0,0,2.778-1.163,4.033-.533l-.375,1.528s-2.783-.558-4.489.884c0,0,2.941-1.11,4.383-.553l-.572,1.442s-2.725-.481-4.138.716c0,0,3.538-.961,3.985-.394a7.566,7.566,0,0,1-.932,1.572s-1.966-.308-2.72.481c0,0,2.427-.38,2.514-.13a8.286,8.286,0,0,1-2.273,1.923,5.883,5.883,0,0,0,2.495-1.706,3.23,3.23,0,0,1-.351,1.822s1.048-.481.649-2.187a7.358,7.358,0,0,0,.923-1.442,6.972,6.972,0,0,1,.481,2.764s.769-1.2-.317-3.143l.606-1.442a9.729,9.729,0,0,1,.894,3.129s.6-1.341-.769-3.509l.38-1.495a11.979,11.979,0,0,1,1.139,2.884,4.748,4.748,0,0,0-1.043-3.336l.139-1.029s.673,1.288.832,1.677.279.375.279.375a4.942,4.942,0,0,0-1.043-2.485A12.137,12.137,0,0,1,416.1,367.336Z"
      transform="translate(-76.226 -225.898)" />
    <path class="b"
      d="M574.133,348.411s3.912,10.8-4.167,11.766a1.961,1.961,0,0,1-2.269-.394s.567-.187.043-1.235a5.142,5.142,0,0,1-.408-1.178,2.6,2.6,0,0,1,.168-1.639h0s.36-3.465,5.052-6.162c0,0,.841-1.211,1.134-1.259l-.245,2.086a3.478,3.478,0,0,0-2.49.591s2.4-.649,2.47-.279c0,.077-.178,1.1-.178,1.1s-2.653-.4-4.1.923c0,0,2.778-1.158,4.037-.534l-.38,1.533s-2.783-.562-4.489.884c0,0,2.946-1.115,4.388-.558l-.572,1.442s-2.725-.481-4.138.716c0,0,3.533-.961,3.984-.389a7.418,7.418,0,0,1-.961,1.572s-1.961-.312-2.72.481c0,0,2.427-.38,2.514-.125a8.324,8.324,0,0,1-2.269,1.923,5.83,5.83,0,0,0,2.49-1.706,3.253,3.253,0,0,1-.346,1.822s1.043-.481.644-2.182a7.74,7.74,0,0,0,.928-1.442,7.087,7.087,0,0,1,.481,2.764s.769-1.192-.317-3.143l.606-1.442a9.729,9.729,0,0,1,.894,3.124s.6-1.336-.769-3.5l.385-1.5a11.987,11.987,0,0,1,1.139,2.884,4.771,4.771,0,0,0-1.048-3.336l.139-1.029s.673,1.288.836,1.677.279.375.279.375a4.975,4.975,0,0,0-1.048-2.485A11.819,11.819,0,0,1,574.133,348.411Z"
      transform="translate(-308.311 -215.675)" />
    <path class="b"
      d="M348.23,531.9s3.917,10.79-4.167,11.776a1.951,1.951,0,0,1-2.264-.394s.562-.187.043-1.235a5.175,5.175,0,0,1-.413-1.178,2.566,2.566,0,0,1,.173-1.639h0s.36-3.465,5.052-6.157c0,0,.836-1.216,1.13-1.264l-.24,2.086a3.475,3.475,0,0,0-2.49.591s2.4-.649,2.466-.279c0,.077-.178,1.1-.178,1.1s-2.653-.4-4.1.923c0,0,2.778-1.158,4.033-.533l-.375,1.533s-2.783-.562-4.489.884c0,0,2.942-1.115,4.383-.558L346.221,539s-2.725-.481-4.138.716c0,0,3.533-.961,3.985-.389a7.569,7.569,0,0,1-.932,1.572s-1.966-.312-2.725.481c0,0,2.432-.38,2.519-.125a8.373,8.373,0,0,1-2.273,1.923,5.849,5.849,0,0,0,2.495-1.7,3.215,3.215,0,0,1-.351,1.817s1.048-.481.649-2.182a7.745,7.745,0,0,0,.923-1.442,6.993,6.993,0,0,1,.481,2.764s.769-1.192-.317-3.143l.606-1.442a9.634,9.634,0,0,1,.889,3.124s.6-1.336-.769-3.5l.384-1.495a11.889,11.889,0,0,1,1.139,2.884,4.744,4.744,0,0,0-1.043-3.336l.139-1.033s.673,1.288.832,1.677.279.375.279.375a4.922,4.922,0,0,0-1.048-2.485A12.254,12.254,0,0,1,348.23,531.9Z"
      transform="translate(23.445 -314.778)" />
    <path class="b"
      d="M315.893,320.306s3.912,10.786-4.167,11.771a1.966,1.966,0,0,1-2.269-.389s.567-.187.043-1.24a5.387,5.387,0,0,1-.409-1.178,2.586,2.586,0,0,1,.168-1.634h0s.36-3.465,5.056-6.162c0,0,.836-1.216,1.13-1.264L315.2,322.3a3.45,3.45,0,0,0-2.485.586s2.4-.649,2.466-.274c0,.072-.178,1.1-.178,1.1s-2.653-.4-4.1.923c0,0,2.778-1.163,4.037-.534l-.375,1.528s-2.783-.562-4.494.884c0,0,2.946-1.115,4.388-.553l-.572,1.442s-2.725-.481-4.138.721c0,0,3.533-.961,3.984-.394a7.567,7.567,0,0,1-.932,1.572s-1.966-.308-2.725.481c0,0,2.427-.38,2.514-.13a8.237,8.237,0,0,1-2.269,1.923,5.911,5.911,0,0,0,2.495-1.706,3.23,3.23,0,0,1-.351,1.822s1.048-.481.644-2.187a7.578,7.578,0,0,0,.928-1.442,7.064,7.064,0,0,1,.481,2.764s.774-1.2-.317-3.143l.61-1.442a9.632,9.632,0,0,1,.889,3.129s.6-1.341-.769-3.509l.384-1.495a11.981,11.981,0,0,1,1.139,2.884,4.779,4.779,0,0,0-1.043-3.336l.135-1.029s.678,1.288.836,1.673.279.38.279.38a4.921,4.921,0,0,0-1.048-2.485A11.758,11.758,0,0,1,315.893,320.306Z"
      transform="translate(70.935 -200.499)" />
    <path class="b"
      d="M383.259,442.223s-3.023,11.055-10.194,7.21a1.956,1.956,0,0,1-1.625-1.625s.567.173.745-.985a5.287,5.287,0,0,1,.346-1.2,2.543,2.543,0,0,1,1.081-1.24h0s2.293-2.624,7.69-2.124c0,0,1.384-.5,1.653-.375l-1.4,1.562a3.51,3.51,0,0,0-2.374-.961s2.35.865,2.177,1.2c-.038.067-.779.8-.779.8s-1.923-1.86-3.884-1.615c0,0,2.937.654,3.6,1.894l-1.187,1.033s-1.951-2.062-4.182-1.87c0,0,3.052.788,3.908,2.076l-1.307.86s-1.923-1.975-3.8-1.8c0,0,3.432,1.264,3.485,1.975a7.493,7.493,0,0,1-1.673.745s-1.442-1.384-2.495-1.187c0,0,2.206,1.091,2.129,1.346a8.553,8.553,0,0,1-2.956.25,5.863,5.863,0,0,0,3.018.048,3.2,3.2,0,0,1-1.336,1.283s1.134.207,1.788-1.413a7.62,7.62,0,0,0,1.6-.649,7.105,7.105,0,0,1-1.2,2.538s1.317-.534,1.552-2.754l1.331-.832a10.073,10.073,0,0,1-1.072,3.066s1.259-.75,1.394-3.307l1.173-1a12.016,12.016,0,0,1-.74,3.028,4.819,4.819,0,0,0,1.067-3.326l.707-.764s-.192,1.442-.284,1.85,0,.481,0,.481a4.936,4.936,0,0,0,.577-2.634A12.013,12.013,0,0,1,383.259,442.223Z"
      transform="translate(-24.698 -266.122)" />
    <path class="b"
      d="M553.9,462.79s-3.023,11.055-10.19,7.21a1.951,1.951,0,0,1-1.629-1.625s.572.173.75-.961a5.053,5.053,0,0,1,.341-1.2,2.576,2.576,0,0,1,1.086-1.24h0s2.293-2.624,7.69-2.12c0,0,1.384-.509,1.649-.38l-1.4,1.562a3.51,3.51,0,0,0-2.374-.961s2.35.865,2.172,1.2c-.034.067-.779.8-.779.8s-1.923-1.86-3.884-1.615c0,0,2.942.654,3.6,1.894l-1.192,1.033s-1.923-2.062-4.177-1.87c0,0,3.047.788,3.9,2.076l-1.307.86s-1.923-1.975-3.792-1.8c0,0,3.432,1.264,3.48,1.975a7.435,7.435,0,0,1-1.668.745s-1.442-1.384-2.495-1.187c0,0,2.2,1.091,2.129,1.346a8.57,8.57,0,0,1-2.961.25,5.888,5.888,0,0,0,3.023.048,3.235,3.235,0,0,1-1.336,1.283s1.134.207,1.788-1.413a7.49,7.49,0,0,0,1.591-.649,7.06,7.06,0,0,1-1.2,2.538s1.317-.534,1.552-2.754l1.331-.841a9.987,9.987,0,0,1-1.077,3.066s1.259-.75,1.394-3.307l1.178-1a11.866,11.866,0,0,1-.745,3.028,4.806,4.806,0,0,0,1.072-3.326l.706-.764s-.192,1.442-.284,1.85,0,.481,0,.481a4.937,4.937,0,0,0,.577-2.634A12.082,12.082,0,0,1,553.9,462.79Z"
      transform="translate(-275.281 -277.237)" />
    <path class="d" d="M458.477,644.022s-24.936-8.4-19.774-38.148l31.674-8.224,7.354,24.412Z"
      transform="translate(-150.086 -351.498)" />
    <path class="e" d="M477.727,630.948l-19.25,21.961s-24.936-8.4-19.774-38.148Z"
      transform="translate(-150.082 -360.466)" />
    <path class="f" d="M229.985,182.92s-3.365,5.475-7.964,2.74-.187-10.291-.187-10.291S230.644,174.163,229.985,182.92Z"
      transform="translate(197.625 -119.855)" />
    <path class="e"
      d="M222.017,185.663a4.744,4.744,0,0,0,3.706.625,7.47,7.47,0,0,0,3.682-2.576,8.026,8.026,0,0,0,.577-.783c.236-3.124-.735-4.984-2.081-6.08h0a8.474,8.474,0,0,0-5.518-1.519,2.5,2.5,0,0,0-.538.048l-.091.154c-.13.245-.413.788-.716,1.514C220.008,179.424,218.782,183.735,222.017,185.663Z"
      transform="translate(197.629 -119.858)" />
    <path class="g"
      d="M502.966,611.85l-17.3,1.4-32.2.264,25.373,31.242s8.051.437,9.709,1.572,24.94.529,24.94.529l3.759-16.015Z"
      transform="translate(-196.561 -358.782)" />
    <path class="h"
      d="M502.966,611.85l-17.3,1.4-32.2.264,25.373,31.242s8.051.437,9.709,1.572,24.94.529,24.94.529l3.759-16.015Z"
      transform="translate(-196.561 -358.782)" />
    <path class="d"
      d="M445.162,436.358l-4.023,6.825-.875,11.9s-2.8,10.146-4.9,13.121-2.975,10.853-2.975,10.853-.875,7.349-1.923,8.921-2.451,12.977-2.451,12.977-9.276,18.548-17.673,20.821c0,0,41.648,13.65,19.774,38.148,0,0,15.573,3.845,19.25-.524s13.3-69.121,13.3-69.121l-2.975-54.6Z"
      transform="translate(-121.957 -266.413)" />
    <path class="h"
      d="M445.162,436.358l-4.023,6.825-.875,11.9s-2.8,10.146-4.9,13.121-2.975,10.853-2.975,10.853-.875,7.349-1.923,8.921-2.451,12.977-2.451,12.977-9.276,18.548-17.673,20.821c0,0,41.648,13.65,19.774,38.148,0,0,15.573,3.845,19.25-.524s13.3-69.121,13.3-69.121l-2.975-54.6Z"
      transform="translate(-121.957 -266.413)" />
    <path class="g"
      d="M240.327,266.38a37.491,37.491,0,0,1-1.009,18.216l6.479,18.548s49.347-27.473,45.147-34.125c-2.379-3.773-2.682-13.756-2.49-21.687.139-6.027.567-10.862.567-10.862s-60.561,5.955-52.5,19.778A32.631,32.631,0,0,1,240.327,266.38Z"
      transform="translate(131.115 -155.921)" />
    <path class="e"
      d="M241.046,256.248a32.63,32.63,0,0,1,3.807,10.132,40.83,40.83,0,0,0,48.127-19.048c.139-6.027.567-10.862.567-10.862S233,242.425,241.046,256.248Z"
      transform="translate(126.639 -155.484)" />
    <path class="g"
      d="M230.83,171.673a40.778,40.778,0,1,0,74.048-23.551q-.865-1.216-1.822-2.374a40.787,40.787,0,0,0-13.27-10.574h0a40.058,40.058,0,0,0-8.724-3.163,40.637,40.637,0,0,0-50.232,39.662Z"
      transform="translate(112.375 -96.794)" />
    <path class="d"
      d="M81.811,416.065c.61,3.259-.154,9.214-1.312,15.275-.048.264-.1.529-.154.793s-.13.673-.2,1c-.534,2.605-1.115,5.186-1.682,7.532s-1.077,4.355-1.509,6.008c-.654,2.475-1.1,4.033-1.1,4.033s-.058,1.528-.135,3.96c-.043,1.4-.091,3.115-.139,5,0,.548-.034,1.105-.048,1.682-.024,1-.048,2.047-.072,3.115,0,.346,0,.692-.024,1.043,0,1.149-.043,2.322-.062,3.49-.024,1.605-.043,3.211-.053,4.768v5.989c.053,3.725.2,6.537.519,7.349.111.279.211.582.308.9a30.392,30.392,0,0,1,.9,4.552l.817-.668c1.562-1.288,3.11-2.605,4.681-3.884a68.055,68.055,0,0,1,8.3-5.95c.2-.115.394-.231.6-.341.538-.312,1.086-.606,1.644-.884a37.642,37.642,0,0,1,3.528-1.557,46.21,46.21,0,0,1,17.524-2.754c2.4.918,3.965,1.577,3.965,1.577l3.057.923.509.154c3.312,1.009,7.969,2.442,9.646,3.038,2.711.961,26.248,5.859,26.248,5.859a39.094,39.094,0,0,0,6.566,1.2,92.7,92.7,0,0,0,12.309,2.576,68.587,68.587,0,0,0,28.17-2.269,4.6,4.6,0,0,0,.817-.024,2.512,2.512,0,0,1-.481-.067l.586-.173.8-.25q2.019-.634,4-1.389l.8-.308q1.923-.74,3.763-1.591l.8-.365q1.923-.894,3.763-1.889c.442-.231.88-.481,1.312-.716q1.961-1.1,3.845-2.3c.211-1.812.322-3.023.322-3.023l1.874-9.334.1-.481,1.346-6.729.1-.481,2.927-14.64.1-.481,1.346-6.729.1-.481,2.966-14.631.1-.481,1.346-6.729.1-.481,2.942-14.66.1-.481,1.346-6.7.1-.481.534-2.644.8-4s2.562-3.662,5.446-7.993l.322-.481c.822-1.216,1.668-2.48,2.49-3.72.274-.409.538-.812.8-1.211q.6-.908,1.163-1.774l.26-.4.053-.082c4.143-6.412,1.37-9.2,1.37-9.2s-1.74-2.355-3.985-5.47c-.111-.159-.226-.317-.346-.481-.961-1.346-2.019-2.817-3.057-4.287l-.8-1.144c-.3-.428-.6-.856-.889-1.279-.115-.159-.226-.322-.332-.481a56.868,56.868,0,0,1-4.417-6.984c-.586-1.562-4.326-6.181-8.051-10.233-2.937-3.2-5.859-6.046-7.171-6.729-2.975-1.572-4.2-6.652-4.2-6.652s-6.474-2.269-7.349-4.018-13.126-9.613-13.126-9.613a64.743,64.743,0,0,1-6.96-5.114,4.1,4.1,0,0,1-.735-.86c-.7-1.25-5.249-2.278-7.1-2.648-.481-.1-.779-.149-.779-.149a15.665,15.665,0,0,0-2.8-3.677c-.755-.668-1.7-2.97-2.49-5.2-.86-2.432-1.528-4.773-1.528-4.773-1.4-4.725-4.2-3.326-4.2-3.326a9.614,9.614,0,0,1-.183,1.923h0c-1.168,5.768-7.512,8.171-10.843,10.867-3.677,2.97-9.449,10.675-14,12.247-3.768,1.3-8.137,6.215-9.521,7.854l-.106.125c-.231.269-.346.423-.346.423s-2.581-.135-4.153-.163h-.572a1.672,1.672,0,0,1-.875-.356c-1.562-1.062-3.888-4.177-4.9-4.893-1.221-.88-2.451-15.054-2.451-15.054l-.062-.029c-4.359-2.043-9.036,18.4-9.036,18.4s-8.224,2.451-8.926,4.2a6.285,6.285,0,0,1-1.687,1.706,92.479,92.479,0,0,1-13.506,8.579c-.106.053-.207.106-.312.149a3.191,3.191,0,0,1-.293.139c-.178.087-.351.163-.514.236q-.389.173-.721.288l-.288.1a6.95,6.95,0,0,0-1.923.995c-.173.125-.346.255-.514.394a13.585,13.585,0,0,0-1.8,1.807c-.082.1-.159.2-.235.293h0A16.158,16.158,0,0,0,86,330.424a19.658,19.658,0,0,0-1.206,2.009s-7.171,12.252-9.449,13.645-3.677,15.578-3.677,15.578h0l7.69,28.507s.36,7.21,1.033,14.563C80.768,408.85,81.244,413.046,81.811,416.065Z"
      transform="translate(242.942 -189.17)" />
    <path class="i"
      d="M269.44,340.6s5.157,2.8,9.185,3.062a7.567,7.567,0,0,0,1.576-.091c4.22-.639,10.411-4.109,10.411-4.109L283.35,331.5l-8.834,4.379-3.249,3.023Z"
      transform="translate(115.781 -206.598)" />
    <path class="e"
      d="M230.84,165.152a4.839,4.839,0,0,0,.62.716c2.528,2.4,7.017,1.408,10.464.851a38.106,38.106,0,0,0,8.714-2.519c2.432-1.038,5.35-2.307,7.536-.817.841.567,1.418,1.476,2.293,1.975a6.313,6.313,0,0,0,3.023.548,44.141,44.141,0,0,0,10.012-.721c4.9-1.144,9.964-4.023,14.621-2.124,3.643,1.48,5.619,5.446,6.6,9.257a16.749,16.749,0,0,0,1.923,5.431c1.086,1.586,3.187,2.711,4.975,1.966,2.639-1.1,3.028-5.58,6.21-5.806,3.494-.245,3.451,3.365,2.432,5.974-1.509,3.845-3.485,7.69-3.571,11.7a40.8,40.8,0,0,0-2.326-43.469,4.393,4.393,0,0,1-1.735-2.028,3.031,3.031,0,0,1-.087-.346c-.264-1.341.481-2.749.524-4.153.168-3.427-3.542-5.816-6.945-6.248-2.264-.288-4.581-.067-6.849-.139h0a15.5,15.5,0,0,1-3.389-.452,16.3,16.3,0,0,1-5.287-2.716,40.854,40.854,0,0,0-49.732,33.131Z"
      transform="translate(112.882 -96.805)" />
    <path class="j"
      d="M223.3,154.756a5.288,5.288,0,0,0,1.442,2.5c2.528,2.4,7.017,1.4,10.464.846a37.629,37.629,0,0,0,8.714-2.5c2.432-1.033,5.35-2.3,7.536-.812.841.567,1.418,1.476,2.293,1.975a6.254,6.254,0,0,0,3.023.543,42.8,42.8,0,0,0,10.012-.716c4.9-1.149,9.964-4.023,14.621-2.129,3.643,1.48,5.619,5.45,6.6,9.262a16.683,16.683,0,0,0,1.923,5.426c1.086,1.581,3.187,2.716,4.975,1.971,2.639-1.1,3.028-5.58,6.21-5.806,3.494-.245,3.451,3.364,2.432,5.974-1.788,4.552-4.22,9.079-3.422,13.9.793,0,2.105-.029,2.884-.048-.606-1.033.548-2.264,1.7-2.615s2.49-.346,3.364-1.182a3.944,3.944,0,0,0,.788-3.288,22.624,22.624,0,0,0-1.793-7.181c-.63-1.442-1.442-3-.961-4.513a12.825,12.825,0,0,1,1.038-1.966,7.508,7.508,0,0,0-.091-6.311c-.365-.846-.63-1.644-.932-2.4a10.688,10.688,0,0,0-1.639-2.994c-1.1-1.37-2.177-3.432-.961-4.705.308-.322-.308-.543-.111-.961a.823.823,0,0,0,.072-.226,2.182,2.182,0,0,0-.346-1.442,3.524,3.524,0,0,0-.187-.322,2.737,2.737,0,0,0-.187-.317,15.279,15.279,0,0,0-4.158-4.532c-1.043-.755-2.264-1.48-2.677-2.7-.481-1.442.365-2.975.437-4.5.168-3.427-3.542-5.816-6.945-6.248s-6.931.284-10.247-.6c-4.705-1.24-8.012-5.393-12.285-7.724a17.394,17.394,0,0,0-15.284-.548c-4.989,2.278-8.752,6.883-13.963,8.613-1.846.615-3.845.86-5.508,1.879-1.923,1.182-3.091,3.249-4.09,5.287-1.524,3.091-1.831,6.2-2.884,9.469-.836,2.6-1.995,5.989-2.091,8.978a9,9,0,0,0,.236,2.658Z"
      transform="translate(117.245 -89.24)" />
    <g class="k" transform="translate(340.146 42.878)">
      <path d="M234.415,181.768a2.139,2.139,0,0,1,.361-1.8c-.125.375.418.591.12.9A1.922,1.922,0,0,0,234.415,181.768Z"
        transform="translate(-154.42 -165.152)" />
      <path d="M234.6,177.68h0a1.985,1.985,0,0,1,.1.519C234.606,178.045,234.481,177.887,234.6,177.68Z"
        transform="translate(-154.226 -163.963)" />
      <path
        d="M234.909,194.419c2.533,2.4,7.017,1.408,10.473.846a37.374,37.374,0,0,0,8.7-2.514c2.437-1.038,5.35-2.307,7.541-.817.836.567,1.413,1.476,2.293,1.975a6.264,6.264,0,0,0,3.023.543,43.929,43.929,0,0,0,10.017-.721c4.893-1.144,9.959-4.013,14.616-2.124,3.643,1.485,5.619,5.45,6.6,9.262A16.638,16.638,0,0,0,300.1,206.3c1.091,1.586,3.191,2.711,4.975,1.971,2.639-1.105,3.028-5.58,6.21-5.806,2.485-.178,3.177,1.6,3.009,3.576a2.527,2.527,0,0,0-3.009-2.528c-3.182.226-3.571,4.705-6.21,5.806-1.783.745-3.888-.375-4.975-1.971a16.843,16.843,0,0,1-1.923-5.426c-.985-3.811-2.961-7.782-6.6-9.262-4.657-1.894-9.723.961-14.616,2.124a42.569,42.569,0,0,1-10.017.716,6.083,6.083,0,0,1-3.023-.538c-.9-.509-1.442-1.408-2.293-1.98-2.192-1.485-5.1-.216-7.541.817a37.618,37.618,0,0,1-8.7,2.519c-3.456.558-7.94,1.562-10.473-.851a6.6,6.6,0,0,1-1.7-5.287A6.054,6.054,0,0,0,234.909,194.419Z"
        transform="translate(-233.2 -170.455)" />
      <path
        d="M249.969,149.14a5.114,5.114,0,0,1,.029.721c-.048,1-.428,2-.548,2.975C249.272,151.639,249.825,150.39,249.969,149.14Z"
        transform="translate(-176.674 -149.14)" />
      <path
        d="M225.776,214.361a3.538,3.538,0,0,0-.091.437,3.451,3.451,0,0,1,.091-1.485,12.461,12.461,0,0,1,1.038-1.971,5.936,5.936,0,0,0,.63-2.283,6.33,6.33,0,0,1-.63,3.336A12.211,12.211,0,0,0,225.776,214.361Z"
        transform="translate(-142.714 -180.26)" />
      <path
        d="M235.68,255.517l2.812-.043a1.206,1.206,0,0,0,.087,1.048c-.793,0-2.11.029-2.884.048a11.775,11.775,0,0,1-.139-2.49A11.26,11.26,0,0,0,235.68,255.517Z"
        transform="translate(-158.583 -203.642)" />
      <path
        d="M225.207,248.076c1.149-.346,2.485-.351,3.34-1.192a3.047,3.047,0,0,0,.8-2.014,3.783,3.783,0,0,1-.8,3.066c-.856.841-2.192.846-3.34,1.192a2.855,2.855,0,0,0-1.745,1.442C222.977,249.575,224.092,248.408,225.207,248.076Z"
        transform="translate(-143.51 -198.858)" />
    </g>
    <path class="e"
      d="M314.742,530.853c.538-.312,1.086-.606,1.644-.884a37.637,37.637,0,0,1,3.528-1.557,46.209,46.209,0,0,1,17.524-2.754c2.4.918,3.965,1.577,3.965,1.577l3.057.923.509.154c.034-.336.072-.673.106-1.014s.072-.668.111-1c1.077-10.194,1.923-20.668,1.923-20.668v-10.1l.058-26.652.481-8.786.226-3.888.043-.74.086-1.519.048-.9a8.12,8.12,0,0,0,.269-.875h0c.034-.12.067-.255.1-.394.12-.481.25-1.1.385-1.774.88-4.422,1.98-11.877,2.048-13.391.087-2.019,1.836-14.092,1.836-14.092.178-6.647,5.768-19.163,7.176-21.523s2.98-16.539,2.451-17.3a22.141,22.141,0,0,1-.562-5.056c0-.255-.024-.5-.034-.75-.072-1.745-.106-3.2-.106-3.2l-5.5-1.086-1.476-.288-.115-.024-.048.1c-.159.293-.654,1.23-1.235,2.461-.067.13-.13.269-.2.409-.029.067-.062.135-.1.2-1.077,2.355-2.322,5.455-2.269,7.238.087,3.153-3.5,10.766-3.5,10.766-.346,1.75-7.959,19.158-7.959,19.158s-6.215,17.063-5.864,19.865-2.975,21.35-2.975,21.35L326.96,473.9c-1.658,3.759-3.845,12.42-3.845,12.42l-.832,4.912-.159.937-2.216,13.107-1.086,6.421s-.457,3.413-1.149,7.21c-.058.341-.125.687-.192,1.033a52.891,52.891,0,0,1-1.812,7.378A27.626,27.626,0,0,0,314.742,530.853Z"
      transform="translate(22.941 -233.504)" />
    <path class="i"
      d="M315.845,531.184c.2-.115.394-.231.6-.341.538-.312,1.086-.606,1.644-.884a37.632,37.632,0,0,1,3.528-1.557,46.209,46.209,0,0,1,17.524-2.754c2.4.918,3.965,1.576,3.965,1.576l3.057.923c.038-.336.072-.673.111-1.014s.067-.615.1-.923c1.077-10.17,1.923-20.6,1.923-20.6V495.429l.058-26.584.481-8.392.1-1.74.067-1.178.087-1.557.087-1.581.062-1.139v-.25a.093.093,0,0,1,.034-.082c.091-.26.2-.654.322-1.154l.058-.24c.024-.111.053-.231.077-.351.9-4.1,2.23-12.939,2.3-14.6.087-2.019,1.836-14.092,1.836-14.092.178-6.647,5.768-19.163,7.176-21.523s2.975-16.539,2.451-17.3c-.3-.481-.481-3.4-.6-5.806V377.3c-.062-1.485-.086-2.643-.086-2.643l-5.114-1.009-1.3-.255-.2-.038-.481-.1s-.63,1.163-1.384,2.764l-.1.2c-1.1,2.374-2.4,5.6-2.365,7.44.086,3.153-3.5,10.766-3.5,10.766-.346,1.75-7.959,19.158-7.959,19.158s-6.215,17.063-5.864,19.865-2.975,21.35-2.975,21.35l-3.413,19.077c-1.658,3.759-3.845,12.42-3.845,12.42l-.774,4.576-.159.928-1.745,10.343-1.61,9.531s-.481,3.4-1.144,7.21c-.062.346-.125.692-.192,1.043a53.172,53.172,0,0,1-1.812,7.411A29.321,29.321,0,0,0,315.845,531.184Z"
      transform="translate(21.257 -233.51)" />
    <path class="f"
      d="M221.73,129.022s1.836,2.365,3.494,2.365,8.113-.264,11.478-1.312,19.86-1.841,19.86-1.841,23.359.087,24.147-.7,14.525-4.989,15.924-4.725c.293.058,1.009.183,1.966.341l1.1.178c1.658.264,3.73.572,5.624.8a17.57,17.57,0,0,0,5.052.173v-2.014s-2.711-3.941-2.884-5.071-2.451-17.5-8.4-23.364A23.455,23.455,0,0,0,287.8,83.275c-8.051-3.5-16.1-6.474-16.1-6.474l-1.408-.2-4.542-.673a3.428,3.428,0,0,0-.447-.375c-1.259-.961-5.076-3.052-10.05,1.442l-.88,1.4s-15.308,3.586-22.393,16.1-7.44,24.763-7.964,30.362c0,0,.351,1.577-.351,2.187a9.814,9.814,0,0,0-.726.711c-.062.063-.125.125-.183.192-.2.2-.389.413-.543.586a.227.227,0,0,0-.048.048,1.541,1.541,0,0,1-.12.13Z"
      transform="translate(116.409 -67.351)" />
    <path class="h"
      d="M245.57,175.964s1.836,2.365,3.494,2.365,8.113-.264,11.478-1.312,19.86-1.841,19.86-1.841,23.359.087,24.147-.7,14.525-4.989,15.924-4.725c.293.058,1.009.183,1.966.341l.25-1.538.062-.38s-26.512-5.686-44.185-2.706-30.713,6.3-30.713,6.3.351,1.577-.351,2.187a9.818,9.818,0,0,0-.726.711c-.062.063-.125.125-.183.192-.2.2-.389.413-.543.586a.225.225,0,0,0-.048.048,1.6,1.6,0,0,1-.12.13Z"
      transform="translate(95.107 -114.293)" />
    <path class="e"
      d="M220.24,185.191c3.273.255,9.305-.543,11.944-.932.75-.111,1.485-.245,2.225-.409,2.831-.615,11.535-2.341,16.822-1.543,6.388.961,24.412-.788,24.412-.788s11.112-2.273,15.578-4.109a15.488,15.488,0,0,1,7.1-.553,19.78,19.78,0,0,1,2.067.37c3.72.88,6.859,2.884,6.316,6.3a8.023,8.023,0,0,0,.577-.783c.236-3.124-.735-4.984-2.081-6.08h0l-.317-.13a38.816,38.816,0,0,0-5.008-1.072c-.264-.043-.538-.082-.817-.115-4.782-.644-11.7-.788-17.534,2.148,0,0-5.422,2.543-9.1,2.543s-33.6.264-40.6,2.273a29.806,29.806,0,0,1-4.254.9,17.3,17.3,0,0,1-7.594-.716,9,9,0,0,0,.26,2.7Z"
      transform="translate(120.307 -119.674)" />
    <path class="e"
      d="M221.73,180.183s1.836,2.365,3.494,2.365,8.113-.264,11.478-1.312,19.86-1.841,19.86-1.841,23.359.086,24.147-.7,14.525-4.989,15.924-4.725c.293.058,1.009.183,1.966.341l1.1.178a19.515,19.515,0,0,1,5.624.8,17.569,17.569,0,0,0,5.052.173v-.4a11.534,11.534,0,0,0-1.572-.759,42.507,42.507,0,0,0-9.949-1.548,27.8,27.8,0,0,0-13.415,2.509s-5.422,2.543-9.1,2.543-33.6.26-40.6,2.273a30.43,30.43,0,0,1-4.254.894,17.688,17.688,0,0,1-9.272-1.331.226.226,0,0,0-.048.048,1.6,1.6,0,0,1-.12.13Z"
      transform="translate(116.409 -118.511)" />
    <path class="f"
      d="M307.95,182.872s5.864-4.465-1.75-7.44c0,0-13.3-4.109-23.364.961,0,0-5.422,2.533-9.1,2.533s-33.6.264-40.6,2.278a30.281,30.281,0,0,1-4.254.894,18.106,18.106,0,0,1-10.8-2.052c-.481-.264-.913-.4-1.043-.245-.437.529-.091,3.59,3.759,4.2,3,.481,9.829-.428,12.7-.846.745-.111,1.485-.25,2.221-.409,2.831-.615,11.535-2.341,16.846-1.543,6.383.961,24.412-.788,24.412-.788s11.108-2.273,15.573-4.114S309.613,176.047,307.95,182.872Z"
      transform="translate(118.997 -119.1)" />
    <path class="e"
      d="M305.14,85.615c.481-.692,6.657-5.638,9.175-7.637l-4.542-.673a3.43,3.43,0,0,0-.447-.375A18.788,18.788,0,0,0,305.14,85.615Z"
      transform="translate(75.291 -68.759)" />
    <path class="e" d="M220.389,89.6l2.014,2.975-7.7-.26-.173-3.326Z" transform="translate(179.744 -46.218)" />
    <path class="e" d="M322.247,97.73l-.875,2.711-4.9.788,2.1-3.24Z" transform="translate(32.117 -50.757)" />
    <path class="e" d="M228.011,347c-.524.875-17.76,23.551-22.311,22.922S228.011,347,228.011,347Z"
      transform="translate(206.723 -215.151)" />
    <path class="e" d="M328.977,390.12s-4.2,4.028-3.586,5.6S328.977,390.12,328.977,390.12Z"
      transform="translate(51.135 -238.14)" />
    <path class="e" d="M225.142,447.65s3.677,17.236,1.75,17.784S225.142,447.65,225.142,447.65Z"
      transform="translate(197.691 -269.454)" />
    <path class="e" d="M335.177,586.91c-.61,1.75-5.686,13.126-6.825,13.737S335.177,586.91,335.177,586.91Z"
      transform="translate(43.592 -344.586)" />
    <path class="e" d="M443.183,489.7c.178.61,4.552,4.2,3.59,5.513S443.183,489.7,443.183,489.7Z"
      transform="translate(-122.034 -291.881)" />
    <path class="e" d="M380.956,556.14c.086.442.961,9.613-.7,11.377S380.956,556.14,380.956,556.14Z"
      transform="translate(-26.63 -327.902)" />
    <path class="e"
      d="M192.318,625.387c1.269.706,2.581,1.389,3.917,2.043,1.442.7,2.884,1.37,4.355,2,.586.255,1.173.5,1.754.745q1.327.548,2.624,1.053c2.629,1.029,5.162,1.923,7.416,2.677.875.293,1.711.562,2.49.812,3.922,1.245,6.527,1.923,6.527,1.923a7.071,7.071,0,0,1,1.812-.149h.519a22.792,22.792,0,0,1,2.427.308c5.369.961,12.953,3.658,17.524,5.422,2.4.918,3.965,1.577,3.965,1.577l3.057.923.509.154c3.312,1.009,7.969,2.442,9.646,3.038,2.711.961,26.248,5.859,26.248,5.859a39.107,39.107,0,0,0,6.566,1.2,119.829,119.829,0,0,0,16.448.375c5.508.356,14.419-.856,19.605-1.673l.827-.13c2-.327,3.278-.562,3.278-.562l-.673-.928-13.8-19.038-.082-.115-12.857-17.731-.481-.644-1.168-1.61s-.7-.961-3.4-1.024h-1.043a28.166,28.166,0,0,0-6.667,1.36l-.625.187c-9.31,2.668-23.7,2-23.7,2s-8.954-1.442-15.991-2.307l-.524-.067a64.536,64.536,0,0,0-6.936-.6c-4.287.086-13.564-2.187-13.564-2.187a9.038,9.038,0,0,1-3.96-1.591c-.149-.106-.308-.221-.481-.346-.481-.36-1.033-.8-1.745-1.351-1.3-.995-3.119-2.345-5.984-4.239-.25-.163-.514-.327-.8-.481s-.644-.361-.99-.534a37.532,37.532,0,0,0-8.709-2.884,51.041,51.041,0,0,0-7.58-1.043h-.38c-7.21-.385-14.573.851-18.88,4.9a11.813,11.813,0,0,0-1.951,2.4,10.958,10.958,0,0,0-.7,1.307,12.261,12.261,0,0,0-.87,2.692q-.053.26-.087.519v.154c0,.139-.029.279-.038.418C178.783,615.957,184.753,621.158,192.318,625.387Z"
      transform="translate(113.411 -351.988)" />
    <path class="g"
      d="M333.832,650.79s-15.573,2.884-23.71,2.36c0,0-14.962.788-23.013-1.572,0,0-23.551-4.9-26.248-5.864s-13.213-4.114-13.213-4.114-20.475-8.575-26.248-7.176c0,0-45.324-11.723-42.085-27.56s31.847-12.247,40.854-6.3,7.69,6.566,12.16,7.527c0,0,9.276,2.273,13.564,2.187s23.45,2.975,23.45,2.975,15.049.7,24.32-2.187,11.112-.351,11.112-.351Z"
      transform="translate(113.412 -350.779)" />
    <path class="e"
      d="M91.253,508.789a.237.237,0,0,0,0,.058,3.243,3.243,0,0,0,.274,1.033c1.846,4.528,12.324,16.741,12.324,16.741a33.455,33.455,0,0,0,1.726,4.239,65.007,65.007,0,0,0,4.975,8.435,114.21,114.21,0,0,0,9.05,11.473h.024a13.744,13.744,0,0,0,1.293.851,10.7,10.7,0,0,0,4.427,1.605,4.609,4.609,0,0,0,.817-.024,2.521,2.521,0,0,1-.481-.067l.586-.173.8-.25q2.019-.634,4-1.389l.8-.308q1.923-.74,3.763-1.591l.8-.365q1.923-.894,3.763-1.889c.442-.231.88-.481,1.312-.716q1.961-1.1,3.845-2.3,2-1.274,3.912-2.658c.961-1.783,1.754-3.364,2.187-4.215a11.724,11.724,0,0,0,.759-5.484,2.611,2.611,0,0,0-.029-.481c-.082-1.029-.207-1.735-.207-1.735a24.7,24.7,0,0,0,1.923-3,3.528,3.528,0,0,0,.538-1.726,2.048,2.048,0,0,1,.067-.731,17.05,17.05,0,0,1,3.432-5.768c1.1-1.206,1.163-5.715,1.057-8.911-.062-1.923-.183-3.336-.183-3.336a1.12,1.12,0,0,0,.457-.591,14.285,14.285,0,0,0,.779-3.259,3.4,3.4,0,0,1,.067-.481c.308-2.206.447-4.422.447-4.422,3.557-2.591,5.249-6.633,6.037-10.238l.1-.481a30.28,30.28,0,0,0,.548-6.729v-.6s-.471-10.416-1.788-14.482c-.053-.173-.111-.332-.168-.481a3.6,3.6,0,0,0-.375-.726,8.951,8.951,0,0,1-1.105-3.273c-.2-.99-.36-2.091-.481-3.187-.111-.913-.2-1.822-.264-2.663-.187-2.249-.245-4-.245-4l.889-4.383c.245-1.2.433-2.4.562-3.61a4.222,4.222,0,0,1,.058-.481,40.614,40.614,0,0,0,.12-6.7,2.663,2.663,0,0,0-.029-.481,40.639,40.639,0,0,0-3.922-14.66l-.24-.481q-.481-.961-1.009-1.889c-.255-.457-.524-.908-.8-1.355a39.645,39.645,0,0,0-2.4-3.465c-.125-.163-.255-.322-.385-.481a39.165,39.165,0,0,0-4.979-5.133c-4.854-4.172-9.31-5.984-13.357-6.123-17.7-.625-27.622,30.674-29.228,36.159-.154.529-.231.817-.231.817S100.7,445.4,102.8,448.55a5.417,5.417,0,0,1,.726,2.269c.577,4.234-1.077,11.209-1.077,11.209s-.586,1.923-2.3,6.527l-.5,1.346c-1.072,2.884-1.322,7.724-.707,12.059.591,4.153,1.98,7.825,4.206,8.767,4.552,1.923,3.326,3.845,2.278,5.426a21.6,21.6,0,0,0-1.552,3.547c-.658,1.774-1.269,3.638-1.5,4.364-.067.2-.1.313-.1.313a9.5,9.5,0,0,0-1.975-.529c-.86-.12-1.711-.034-1.874.7-.087.394-.582.86-1.279,1.327A36.92,36.92,0,0,1,91.253,508.789Z"
      transform="translate(322.222 -248.697)" />
    <path class="d"
      d="M89.081,508.788h0a3.168,3.168,0,0,0,.274,1.057c1.836,4.532,12.324,16.774,12.324,16.774a34.172,34.172,0,0,0,1.726,4.239,61.229,61.229,0,0,0,3.927,6.859,113.022,113.022,0,0,0,9.988,12.929l.111.12s.423.322,1.1.735a12.5,12.5,0,0,0,3.917,1.644l.586-.173.8-.25q2.019-.634,4-1.389l.8-.308q1.923-.74,3.763-1.591l.8-.365q1.923-.894,3.763-1.889c.442-.231.88-.481,1.312-.716q1.961-1.1,3.845-2.3,2-1.274,3.912-2.658.884-.634,1.75-1.3c.649-1.23,1.168-2.269,1.49-2.913a11.724,11.724,0,0,0,.759-5.484,2.612,2.612,0,0,0-.029-.481c-.082-1.029-.207-1.735-.207-1.735s.389-.524.86-1.235c.264-.394.548-.851.8-1.3a4.46,4.46,0,0,0,.783-2.187,1.072,1.072,0,0,1,0-.25,2.33,2.33,0,0,1,.072-.481,17.069,17.069,0,0,1,3.437-5.768c1.1-1.206,1.163-5.715,1.062-8.911v-.481c-.067-1.658-.168-2.855-.168-2.855.543-.236.961-1.98,1.23-3.845l.072-.481c.308-2.206.447-4.422.447-4.422,3.557-2.591,5.249-6.633,6.032-10.238a29.348,29.348,0,0,0,.625-7.69v-.12s-.413-10.468-1.73-14.539c-.053-.173-.111-.332-.168-.481a3.6,3.6,0,0,0-.428-.7c-.731-1.019-1.216-3.47-1.533-5.979l-.058-.481c-.4-3.365-.509-6.666-.509-6.666l.894-4.383q.365-1.8.562-3.61c.024-.159.038-.322.058-.481a40.63,40.63,0,0,0,.12-6.7,2.29,2.29,0,0,0-.034-.481,40.542,40.542,0,0,0-3.922-14.66c-.077-.163-.154-.322-.24-.481a37.654,37.654,0,0,0-2.057-3.634c-.26-.409-.524-.812-.8-1.211-.437-.634-.894-1.259-1.37-1.865l-.385-.481a39.211,39.211,0,0,0-4.936-5.119c-5.287-4.532-10.093-6.282-14.419-6.123-17.039.61-26.6,30.785-28.175,36.159-.154.529-.231.817-.231.817s-7.176,7.176-5.076,10.324a5.416,5.416,0,0,1,.726,2.269c.582,4.234-1.077,11.209-1.077,11.209s-.586,1.923-2.3,6.527c-.154.428-.322.875-.481,1.346-1.072,2.884-1.322,7.724-.707,12.059.591,4.158,1.975,7.825,4.206,8.767,4.547,1.923,3.326,3.845,2.273,5.426a21.6,21.6,0,0,0-1.552,3.547c-.831,2.264-1.6,4.677-1.6,4.677a9.354,9.354,0,0,0-.961-.312,4.917,4.917,0,0,0-2.076-.216.918.918,0,0,0-.822.7c-.13.577-1.125,1.293-2.331,1.971a44.516,44.516,0,0,1-4.84,2.269Z"
      transform="translate(325.441 -248.692)" />
    <path class="e"
      d="M165.236,517.167c-1.663-.086-19.514-7-23.191-4.638S115.61,530.2,115.61,530.2s14.261-18.635,26.685-23.008S165.236,517.167,165.236,517.167Z"
      transform="translate(312.548 -301.345)" />
    <path class="e" d="M189.562,587.46S171.711,591.046,169,593.5Z" transform="translate(262.561 -344.654)" />
    <path class="e" d="M148.868,643c.26.264,6.729,14.785,6.21,14.785s-6.037-8.652-6.037-8.652Z"
      transform="translate(306.691 -374.919)" />
    <path class="e" d="M177.407,606.75s5.249,1.841,4.638,2.014S177.585,607.538,177.407,606.75Z"
      transform="translate(265.987 -354.945)" />
    <path class="e" d="M180.581,652.45c-.875,1.836-3.672,7.349-4.287,6.474S180.581,652.45,180.581,652.45Z"
      transform="translate(268.062 -379.748)" />
    <path class="e"
      d="M216.154,313.942l.75,1.067s5.955-4.2,8.4-6.3,8.224,7.522,12.775,10.146,12.247,3.326,12.247,3.326,5.95-5.95,5.768-7.69,2.8-2.273,2.975-3.5a17.406,17.406,0,0,1,2.624-6.474c.74-.923.846-3.811.779-6.325-.481-.1-.779-.149-.779-.149a15.664,15.664,0,0,0-2.8-3.677c-1.576-1.4-4.023-9.973-4.023-9.973-1.4-4.725-4.2-3.326-4.2-3.326,0,7.176-7.354,9.8-11.026,12.775s-9.449,10.675-14,12.251C221.912,307.372,217.543,312.3,216.154,313.942Z"
      transform="translate(166.968 -179.658)" />
    <path class="d"
      d="M216.1,311.754l.75,1.072s5.979-4.186,8.426-6.3,8.224,7.522,12.775,10.146S250.3,320,250.3,320s5.95-5.955,5.768-7.69,2.8-2.273,2.975-3.5a17.375,17.375,0,0,1,2.624-6.474c.74-.923.846-3.811.779-6.325l-.779-.144a15.665,15.665,0,0,0-2.8-3.677c-1.576-1.4-4.023-9.973-4.023-9.973-1.4-4.725-4.2-3.331-4.2-3.331,0,7.176-7.354,9.805-11.026,12.78s-9.449,10.67-14,12.247C221.862,305.2,217.493,310.11,216.1,311.754Z"
      transform="translate(167.018 -178.473)" />
    <path class="e" d="M291.1,349.329s5.157,2.8,9.185,3.062a7.57,7.57,0,0,0,1.576-.091h0s-4.446-3.321-8.575-4Z"
      transform="translate(94.332 -215.541)" />
    <path class="e"
      d="M317.359,376.516s6.5-2.533,8.652,1.279c-.072-1.75-.1-3.2-.1-3.2l-7.089-1.4s-.683,1.264-1.48,2.966C317.359,376.381,317.359,376.516,317.359,376.516Z"
      transform="translate(57.876 -228.981)" />
    <path class="i"
      d="M314.171,351.967s-7.791-4.677-11.535-4.282c-3.927.409-11.535.7-11.535.7s2.624,5.95,2.273,7.176a61.5,61.5,0,0,0-.437,7.176s7.873-3.062,9.185,2.624c0,0,4.287-6.388,7.176-8.315a19.649,19.649,0,0,0,4.874-5.076Z"
      transform="translate(82.091 -215.418)" />
    <path class="e"
      d="M323.246,336.715c2.273,0,10.324-5.08,12.074-8.4s4.2.346,6.474,1.577c1.442.788,7.157-.86,10.238-2.057-1.562-1.062-5.023-4.052-6.037-4.768-1.221-.88-2.451-15.054-2.451-15.054-4.374-2.273-9.1,18.375-9.1,18.375s-8.229,2.451-8.926,4.2a6.284,6.284,0,0,1-1.687,1.706C322.871,334.715,322.342,336.715,323.246,336.715Z"
      transform="translate(29.439 -194.066)" />
    <path class="d"
      d="M325.606,334.541c2.273,0,10.324-5.076,12.074-8.4s4.2.346,6.474,1.572c1.442.788,6.022-.735,9.1-1.923-1.562-1.057-3.888-4.172-4.9-4.893-1.221-.875-2.451-15.049-2.451-15.049-4.374-2.273-9.1,18.375-9.1,18.375s-8.229,2.451-8.926,4.2a6.285,6.285,0,0,1-1.687,1.706C325.231,332.541,324.7,334.541,325.606,334.541Z"
      transform="translate(27.101 -192.897)" />
    <path class="l"
      d="M554.411,615.1l-76.09-63.445a4.076,4.076,0,0,0-2.72-.961l-28.387.745s-1.966,1.442.918,4.595l71.779,58.9a4.565,4.565,0,0,0,2.74,1.029L553.69,617a1.072,1.072,0,0,0,.721-1.894Z"
      transform="translate(-230.326 -326.764)" />
    <path class="g"
      d="M571.834,633.09s-16.621,23.8-35.087,1.663-13.126-33.77-7.527-34.385S566.326,623.991,571.834,633.09Z"
      transform="translate(-284.285 -352.87)" />
    <path class="b"
      d="M809.044,86.207S787.622,44.631,762.3,66.072c0,0-5.527,2.014-5.109,7.858,0,0,2.129-1.168,3.821,3.3a21.571,21.571,0,0,0,2.4,4.484,10.574,10.574,0,0,0,5.335,4.028h0s11.362,8.512,32.41,1.947c0,0,5.95.856,6.912.115l-6.916-5.056s-3.513,5.215-8.651,5.811c0,0,8.651-5.431,7.661-6.609-.2-.24-3.787-2.514-3.787-2.514s-6.147,9.041-14.116,9.709c0,0,11.165-5.09,12.766-10.574L789.42,75.44s-6.027,9.877-15.078,10.983c0,0,11.487-5.724,13.8-11.583l-5.936-2.317s-6.071,9.517-13.6,10.387c0,0,12.6-7.955,12.208-10.829,0,0-5.58-1.8-7.291-1.562,0,0-4.513,6.729-8.935,6.849,0,0,7.858-6.21,7.339-7.166,0,0-7.892-.409-12.016,1.5,0,0,5.864-3.264,12.016-2.735,0,0-2.783-3.273-6.412-3.994,0,0,4.35-1.788,8.325,4.114,0,0,6.138.562,6.9,1.245,0,0-3.1-6.383-6.926-9.1,0,0,5.7,1,8.517,9.656l6.018,2.2s-3.658-8.652-6.883-11.324c0,0,5.652,1.923,8.354,12.016l5.537,3.009s-2.581-7.69-5.527-11.444c0,0,4.859,2.913,7.085,12.362l3.461,2.437s-1.985-5.585-2.7-7.138-.356-1.874-.356-1.874a20.125,20.125,0,0,1,4.532,9.983S808.645,86.591,809.044,86.207Z"
      transform="translate(-630.464 -59.93)" />
    <path class="b"
      d="M964.937,148.029s-9.68-18.788-21.119-9.1a3.6,3.6,0,0,0-2.307,3.547s.961-.524,1.725,1.495A9.613,9.613,0,0,0,944.313,146a4.807,4.807,0,0,0,2.4,1.822h0s5.138,3.845,14.65.88c0,0,2.687.385,3.119.053l-3.124-2.288s-1.586,2.36-3.912,2.624c0,0,3.9-2.451,3.461-2.985-.087-.106-1.706-1.134-1.706-1.134s-2.778,4.085-6.383,4.388c0,0,5.047-2.3,5.768-4.806l-2.538-1.408s-2.72,4.465-6.811,4.965c0,0,5.191-2.586,6.248-5.234l-2.682-1.048s-2.74,4.3-6.143,4.7c0,0,5.7-3.6,5.513-4.893a13.9,13.9,0,0,0-3.292-.707s-2.038,3.042-4.037,3.09c0,0,3.552-2.8,3.316-3.235,0,0-3.566-.183-5.422.678a10.776,10.776,0,0,1,5.422-1.235,5.955,5.955,0,0,0-2.884-1.807s1.966-.807,3.763,1.86a13.722,13.722,0,0,1,3.115.562,13.034,13.034,0,0,0-3.129-4.109s2.576.452,3.845,4.364l2.692,1.009s-1.649-3.908-3.11-5.119c0,0,2.557.87,3.778,5.426l2.5,1.355a21.987,21.987,0,0,0-2.495-5.172s2.2,1.317,3.2,5.585l1.567,1.1s-.9-2.523-1.221-3.225-.159-.846-.159-.846a9.131,9.131,0,0,1,2.048,4.523S964.769,148.2,964.937,148.029Z"
      transform="translate(-871.374 -99.518)" />
    <path class="b"
      d="M746.735,193.509s-9.68-18.788-21.148-9.1a3.607,3.607,0,0,0-2.307,3.552s.961-.529,1.726,1.49a9.813,9.813,0,0,0,1.077,2.023,4.806,4.806,0,0,0,2.427,1.822h0s5.133,3.845,14.645.88c0,0,2.687.389,3.119.053l-3.124-2.288s-1.586,2.36-3.908,2.629c0,0,3.9-2.456,3.461-2.99-.091-.106-1.711-1.134-1.711-1.134s-2.778,4.085-6.378,4.388c0,0,5.042-2.3,5.768-4.806l-2.538-1.4s-2.725,4.46-6.815,4.96c0,0,5.191-2.586,6.248-5.234l-2.682-1.048s-2.744,4.3-6.147,4.7c0,0,5.7-3.6,5.518-4.893a13.945,13.945,0,0,0-3.3-.707s-2.038,3.042-4.037,3.1c0,0,3.552-2.807,3.316-3.24,0,0-3.562-.183-5.422.678a10.8,10.8,0,0,1,5.426-1.235,5.955,5.955,0,0,0-2.884-1.807s1.961-.807,3.759,1.86a13.72,13.72,0,0,1,3.115.562,12.953,12.953,0,0,0-3.129-4.109s2.576.452,3.845,4.364l2.725,1.009s-1.653-3.908-3.11-5.114c0,0,2.552.865,3.773,5.422l2.5,1.355a22.086,22.086,0,0,0-2.5-5.172s2.2,1.317,3.2,5.585l1.567,1.1s-.9-2.523-1.221-3.225-.163-.846-.163-.846a9.084,9.084,0,0,1,2.048,4.523S746.567,193.682,746.735,193.509Z"
      transform="translate(-552.812 -123.138)" />
  </g>
</svg>